<mxfile host="app.diagrams.net" agent="Mozilla/5.0 (Windows NT 10.0; Win64; x64; rv:131.0) Gecko/20100101 Firefox/131.0" version="24.8.3">
  <diagram name="Page-1" id="B3p-ahKXu0gihNcX29If">
    <mxGraphModel dx="683" dy="354" grid="0" gridSize="10" guides="1" tooltips="1" connect="1" arrows="1" fold="1" page="1" pageScale="1" pageWidth="850" pageHeight="1100" background="none" math="0" shadow="0">
      <root>
        <mxCell id="0" />
        <mxCell id="1" parent="0" />
        <mxCell id="gKSc9yTnYQ1M9_7lbM7r-1" value="&lt;div&gt;&lt;font color=&quot;#212424&quot;&gt;Three-Tier Architecture&lt;/font&gt;&lt;/div&gt;&lt;div&gt;&lt;font color=&quot;#212424&quot;&gt;&lt;br&gt;&lt;/font&gt;&lt;/div&gt;" style="points=[[0,0],[0.25,0],[0.5,0],[0.75,0],[1,0],[1,0.25],[1,0.5],[1,0.75],[1,1],[0.75,1],[0.5,1],[0.25,1],[0,1],[0,0.75],[0,0.5],[0,0.25]];outlineConnect=0;gradientColor=none;html=1;whiteSpace=wrap;fontSize=12;fontStyle=0;container=1;pointerEvents=0;collapsible=0;recursiveResize=0;shape=mxgraph.aws4.group;grIcon=mxgraph.aws4.group_vpc2;strokeColor=#8C4FFF;fillColor=none;verticalAlign=top;align=left;spacingLeft=30;fontColor=#AAB7B8;dashed=0;" vertex="1" parent="1">
          <mxGeometry x="158" y="138" width="692" height="265" as="geometry" />
        </mxCell>
        <mxCell id="gKSc9yTnYQ1M9_7lbM7r-2" value="10.0.0.0/16" style="rounded=0;whiteSpace=wrap;html=1;strokeWidth=0;" vertex="1" parent="gKSc9yTnYQ1M9_7lbM7r-1">
          <mxGeometry x="160" width="85" height="10" as="geometry" />
        </mxCell>
        <mxCell id="gKSc9yTnYQ1M9_7lbM7r-3" value="&lt;font style=&quot;font-size: 8px;&quot;&gt;Public subnet&lt;/font&gt;" style="points=[[0,0],[0.25,0],[0.5,0],[0.75,0],[1,0],[1,0.25],[1,0.5],[1,0.75],[1,1],[0.75,1],[0.5,1],[0.25,1],[0,1],[0,0.75],[0,0.5],[0,0.25]];outlineConnect=0;gradientColor=none;html=1;whiteSpace=wrap;fontSize=12;fontStyle=0;container=1;pointerEvents=0;collapsible=0;recursiveResize=0;shape=mxgraph.aws4.group;grIcon=mxgraph.aws4.group_security_group;grStroke=0;strokeColor=#7AA116;fillColor=#F2F6E8;verticalAlign=top;align=left;spacingLeft=30;fontColor=#248814;dashed=0;" vertex="1" parent="gKSc9yTnYQ1M9_7lbM7r-1">
          <mxGeometry x="99" y="52" width="136" height="125" as="geometry" />
        </mxCell>
        <mxCell id="gKSc9yTnYQ1M9_7lbM7r-9" value="" style="sketch=0;points=[[0,0,0],[0.25,0,0],[0.5,0,0],[0.75,0,0],[1,0,0],[0,1,0],[0.25,1,0],[0.5,1,0],[0.75,1,0],[1,1,0],[0,0.25,0],[0,0.5,0],[0,0.75,0],[1,0.25,0],[1,0.5,0],[1,0.75,0]];outlineConnect=0;fontColor=#232F3E;fillColor=#ED7100;strokeColor=#ffffff;dashed=0;verticalLabelPosition=bottom;verticalAlign=top;align=center;html=1;fontSize=12;fontStyle=0;aspect=fixed;shape=mxgraph.aws4.resourceIcon;resIcon=mxgraph.aws4.ec2;" vertex="1" parent="gKSc9yTnYQ1M9_7lbM7r-3">
          <mxGeometry x="79" y="55" width="31.5" height="31.5" as="geometry" />
        </mxCell>
        <mxCell id="gKSc9yTnYQ1M9_7lbM7r-10" value="10.0.1.0/24" style="rounded=0;whiteSpace=wrap;html=1;strokeWidth=0;" vertex="1" parent="gKSc9yTnYQ1M9_7lbM7r-3">
          <mxGeometry x="30" width="85" height="10" as="geometry" />
        </mxCell>
        <mxCell id="gKSc9yTnYQ1M9_7lbM7r-18" value="&lt;font style=&quot;font-size: 9px;&quot;&gt;Security group&lt;/font&gt;" style="fillColor=none;strokeColor=#DD3522;verticalAlign=top;fontStyle=0;fontColor=#DD3522;whiteSpace=wrap;html=1;" vertex="1" parent="gKSc9yTnYQ1M9_7lbM7r-3">
          <mxGeometry x="63" y="25" width="67.75" height="79" as="geometry" />
        </mxCell>
        <mxCell id="gKSc9yTnYQ1M9_7lbM7r-19" value="" style="sketch=0;outlineConnect=0;fontColor=#232F3E;gradientColor=none;fillColor=#8C4FFF;strokeColor=none;dashed=0;verticalLabelPosition=bottom;verticalAlign=top;align=center;html=1;fontSize=12;fontStyle=0;aspect=fixed;pointerEvents=1;shape=mxgraph.aws4.network_access_control_list;" vertex="1" parent="gKSc9yTnYQ1M9_7lbM7r-3">
          <mxGeometry x="-9" y="56.88000000000001" width="21.75" height="21.75" as="geometry" />
        </mxCell>
        <mxCell id="gKSc9yTnYQ1M9_7lbM7r-20" style="edgeStyle=orthogonalEdgeStyle;rounded=0;orthogonalLoop=1;jettySize=auto;html=1;entryX=0.013;entryY=0.542;entryDx=0;entryDy=0;entryPerimeter=0;" edge="1" parent="gKSc9yTnYQ1M9_7lbM7r-3" source="gKSc9yTnYQ1M9_7lbM7r-19" target="gKSc9yTnYQ1M9_7lbM7r-18">
          <mxGeometry relative="1" as="geometry" />
        </mxCell>
        <mxCell id="gKSc9yTnYQ1M9_7lbM7r-5" value="&lt;font style=&quot;font-size: 10px;&quot;&gt;Private subnet&lt;/font&gt;" style="points=[[0,0],[0.25,0],[0.5,0],[0.75,0],[1,0],[1,0.25],[1,0.5],[1,0.75],[1,1],[0.75,1],[0.5,1],[0.25,1],[0,1],[0,0.75],[0,0.5],[0,0.25]];outlineConnect=0;gradientColor=none;html=1;whiteSpace=wrap;fontSize=12;fontStyle=0;container=1;pointerEvents=0;collapsible=0;recursiveResize=0;shape=mxgraph.aws4.group;grIcon=mxgraph.aws4.group_security_group;grStroke=0;strokeColor=#00A4A6;fillColor=#E6F6F7;verticalAlign=top;align=left;spacingLeft=30;fontColor=#147EBA;dashed=0;" vertex="1" parent="gKSc9yTnYQ1M9_7lbM7r-1">
          <mxGeometry x="335" y="61.26" width="132" height="117" as="geometry" />
        </mxCell>
        <mxCell id="gKSc9yTnYQ1M9_7lbM7r-8" value="" style="sketch=0;points=[[0,0,0],[0.25,0,0],[0.5,0,0],[0.75,0,0],[1,0,0],[0,1,0],[0.25,1,0],[0.5,1,0],[0.75,1,0],[1,1,0],[0,0.25,0],[0,0.5,0],[0,0.75,0],[1,0.25,0],[1,0.5,0],[1,0.75,0]];outlineConnect=0;fontColor=#232F3E;fillColor=#ED7100;strokeColor=#ffffff;dashed=0;verticalLabelPosition=bottom;verticalAlign=top;align=center;html=1;fontSize=12;fontStyle=0;aspect=fixed;shape=mxgraph.aws4.resourceIcon;resIcon=mxgraph.aws4.ec2;" vertex="1" parent="gKSc9yTnYQ1M9_7lbM7r-5">
          <mxGeometry x="93" y="50" width="26" height="26" as="geometry" />
        </mxCell>
        <mxCell id="gKSc9yTnYQ1M9_7lbM7r-11" value="10.0.2.0/24" style="rounded=0;whiteSpace=wrap;html=1;strokeWidth=0;" vertex="1" parent="gKSc9yTnYQ1M9_7lbM7r-5">
          <mxGeometry x="30" width="85" height="10" as="geometry" />
        </mxCell>
        <mxCell id="gKSc9yTnYQ1M9_7lbM7r-27" value="" style="sketch=0;outlineConnect=0;fontColor=#232F3E;gradientColor=none;fillColor=#8C4FFF;strokeColor=none;dashed=0;verticalLabelPosition=bottom;verticalAlign=top;align=center;html=1;fontSize=12;fontStyle=0;aspect=fixed;pointerEvents=1;shape=mxgraph.aws4.network_access_control_list;" vertex="1" parent="gKSc9yTnYQ1M9_7lbM7r-5">
          <mxGeometry x="-10" y="52.88" width="21.75" height="21.75" as="geometry" />
        </mxCell>
        <mxCell id="gKSc9yTnYQ1M9_7lbM7r-16" style="edgeStyle=orthogonalEdgeStyle;rounded=0;orthogonalLoop=1;jettySize=auto;html=1;" edge="1" parent="gKSc9yTnYQ1M9_7lbM7r-5" source="gKSc9yTnYQ1M9_7lbM7r-27" target="gKSc9yTnYQ1M9_7lbM7r-8">
          <mxGeometry relative="1" as="geometry" />
        </mxCell>
        <mxCell id="gKSc9yTnYQ1M9_7lbM7r-29" value="&lt;font style=&quot;font-size: 9px;&quot;&gt;Security group&lt;/font&gt;" style="fillColor=none;strokeColor=#DD3522;verticalAlign=top;fontStyle=0;fontColor=#DD3522;whiteSpace=wrap;html=1;" vertex="1" parent="gKSc9yTnYQ1M9_7lbM7r-5">
          <mxGeometry x="49" y="23.75" width="76.75" height="69.5" as="geometry" />
        </mxCell>
        <mxCell id="gKSc9yTnYQ1M9_7lbM7r-6" value="&lt;font style=&quot;font-size: 10px;&quot;&gt;Private subnet&lt;/font&gt;" style="points=[[0,0],[0.25,0],[0.5,0],[0.75,0],[1,0],[1,0.25],[1,0.5],[1,0.75],[1,1],[0.75,1],[0.5,1],[0.25,1],[0,1],[0,0.75],[0,0.5],[0,0.25]];outlineConnect=0;gradientColor=none;html=1;whiteSpace=wrap;fontSize=12;fontStyle=0;container=1;pointerEvents=0;collapsible=0;recursiveResize=0;shape=mxgraph.aws4.group;grIcon=mxgraph.aws4.group_security_group;grStroke=0;strokeColor=#00A4A6;fillColor=#E6F6F7;verticalAlign=top;align=left;spacingLeft=30;fontColor=#147EBA;dashed=0;" vertex="1" parent="gKSc9yTnYQ1M9_7lbM7r-1">
          <mxGeometry x="570" y="57" width="120" height="120" as="geometry" />
        </mxCell>
        <mxCell id="gKSc9yTnYQ1M9_7lbM7r-7" value="" style="sketch=0;points=[[0,0,0],[0.25,0,0],[0.5,0,0],[0.75,0,0],[1,0,0],[0,1,0],[0.25,1,0],[0.5,1,0],[0.75,1,0],[1,1,0],[0,0.25,0],[0,0.5,0],[0,0.75,0],[1,0.25,0],[1,0.5,0],[1,0.75,0]];outlineConnect=0;fontColor=#232F3E;fillColor=#ED7100;strokeColor=#ffffff;dashed=0;verticalLabelPosition=bottom;verticalAlign=top;align=center;html=1;fontSize=12;fontStyle=0;aspect=fixed;shape=mxgraph.aws4.resourceIcon;resIcon=mxgraph.aws4.ec2;" vertex="1" parent="gKSc9yTnYQ1M9_7lbM7r-6">
          <mxGeometry x="62" y="50" width="30" height="30" as="geometry" />
        </mxCell>
        <mxCell id="gKSc9yTnYQ1M9_7lbM7r-12" value="10.0.3.0/24" style="rounded=0;whiteSpace=wrap;html=1;strokeWidth=0;" vertex="1" parent="gKSc9yTnYQ1M9_7lbM7r-6">
          <mxGeometry x="30" width="85" height="10" as="geometry" />
        </mxCell>
        <mxCell id="gKSc9yTnYQ1M9_7lbM7r-31" value="&lt;font style=&quot;font-size: 9px;&quot;&gt;Security group&lt;/font&gt;" style="fillColor=none;strokeColor=#DD3522;verticalAlign=top;fontStyle=0;fontColor=#DD3522;whiteSpace=wrap;html=1;" vertex="1" parent="gKSc9yTnYQ1M9_7lbM7r-6">
          <mxGeometry x="38.25" y="25.25" width="76.75" height="69.5" as="geometry" />
        </mxCell>
        <mxCell id="gKSc9yTnYQ1M9_7lbM7r-32" value="" style="sketch=0;outlineConnect=0;fontColor=#232F3E;gradientColor=none;fillColor=#8C4FFF;strokeColor=none;dashed=0;verticalLabelPosition=bottom;verticalAlign=top;align=center;html=1;fontSize=12;fontStyle=0;aspect=fixed;pointerEvents=1;shape=mxgraph.aws4.network_access_control_list;" vertex="1" parent="gKSc9yTnYQ1M9_7lbM7r-6">
          <mxGeometry x="-9" y="54.120000000000005" width="21.75" height="21.75" as="geometry" />
        </mxCell>
        <mxCell id="gKSc9yTnYQ1M9_7lbM7r-17" style="edgeStyle=orthogonalEdgeStyle;rounded=0;orthogonalLoop=1;jettySize=auto;html=1;" edge="1" parent="gKSc9yTnYQ1M9_7lbM7r-6" source="gKSc9yTnYQ1M9_7lbM7r-32" target="gKSc9yTnYQ1M9_7lbM7r-7">
          <mxGeometry relative="1" as="geometry" />
        </mxCell>
        <mxCell id="gKSc9yTnYQ1M9_7lbM7r-21" style="edgeStyle=orthogonalEdgeStyle;rounded=0;orthogonalLoop=1;jettySize=auto;html=1;" edge="1" parent="gKSc9yTnYQ1M9_7lbM7r-1" source="gKSc9yTnYQ1M9_7lbM7r-24" target="gKSc9yTnYQ1M9_7lbM7r-19">
          <mxGeometry relative="1" as="geometry" />
        </mxCell>
        <mxCell id="gKSc9yTnYQ1M9_7lbM7r-13" value="" style="shape=image;verticalLabelPosition=bottom;verticalAlign=top;imageAspect=0;aspect=fixed;image=data:image/png,iVBORw0KGgoAAAANSUhEUgAAASwAAAEsCAIAAAD2HxkiAAAABGdBTUEAALGPC/xhBQAAAAFzUkdCAK7OHOkAAAAJcEhZcwAADsMAAA7DAcdvqGQAAHTTSURBVHja7f1nkxxXliWK7r2Pq9AiI1IraE0AJKhFsVjsqmotbo+N2bVn78v7I/1XntmzsblzZ7p7bnd1lyJZrKIGSWgtUovIDC1dnbPfB4+EyIwEAUJlJnwVjUCBiRDuvs7WayMzQ4gQIZ4fKLwEIUKEJAwRIiRhiBAhQhKGCBGSMESIECEJQ4QISRgiRIiQhCFChCQMESJESMIQIUIShggR4tlBCy/BFgWDAkZAYFbAAIgMDIyAihkRgHGt75cRiZkRg58DYAAMfoOASNT9i+FFDUkY4kFoNdx202/X3UbdbTd82/btlnRd6dq+05GO7buO9FwGBVKxksqXihWzBEAkDYmACEmQJpAEGgaZUU23yDSFGdF0TUTiIpY0YnEjmtCiCSOZ0kmEflBIwhcPSimnLdtt37V9uyOdtm93pN3xmzW3WfWadafV8Ft1p9nwOi3f6fiOq7yOtG3fsZV0lOcxK1YSFCslQTEjgwIgQiIggUQgiJDAMEmzyDSFYQkrohkGRaJaNGnEkno8YcSSWjxhxtN6NG5YUc20yIzokagwLGFGhWmGT8UzBYajTE/Ro1QsJUuplGTpc6ftl1c65eX2ynK7WnTKq0650KqVXbcDvs9SSukrJdn3lZKspFKKmUEplkqBIkICBAQEQEQAJAzuYOC8MgMwQ/d/rBSDIoFEiEREiAQisJMaCYGaJohQmBBPatn+SDYfyeatdN7KDUb6BiLpnKVpRISkoRAoQpsZknA7wun45dVOqWBXVjqVol0pOtWS3Wp4rZrTqHvthtts+J2m57skUO9GchjEeRxQjZERgnAOoHuf7tysHrftnqgPEYIoEhCQu0xFDuLHLm8JGSR7QNKKUjRpxONaNK7HU0YsqSczRjYfTeesdM7qy1t9g7FUVocwqgxJuMUhfdVu+u2m12n7jYpTKnSWZpvLc62VhVZhvtWsKVCaUszsKwZWUjEDc2DV+E42Zl1y5s6vuO6/MfZI5eA9hFz72/f/2b2/DxgOjAxMSESISIiCCAGVFYXsoNU/HM0PR0cmkwNj0XSfGYnpkagWS+hmJHRZQxJuMbRb3uJMc/ZabfZ2Y/F2vbDQajU815GO7Tsd6buMqBGKgCkMas24MYN6iLu0nkObGCV+4O82e20K7CYDEgADBU8FKx8FmxGhGWRZwoxoff3W0K7E2O7UxL7k+J5EOm8RhW5qSMLnCteRy3PN5blWYaG1utguLduFhdbqQqtadFiZGmmKFaMPwAwKWaqNhMBe/Hq2cStvQlQkQhbICEjIGjP4yo4mIT8U7R+N5Qdj+SGrfzjaP5YYmoims5HweQhJ+IygJLebXqftVYruzPXq1JXqrUuV2ZuNetlmDkydEkRAtJYswbX4bQsy8ME8xLs2OIguAZVUrBiRpFJWVAyMxXYfTO09mpnYlxocj0djeiyuGxEKo8eQhE+Be4qV4k7bW5xu3jxfuXW5Mj/VqNfcds1v1l3PYU0YDACgmCWDYlb38uuJku1h7hc+qTfi+94TCQlBAAoC9JWv2E2krUTKiMREbjiy60B6/9HM7iOZVJ8VVE0QQzaGJHwi8V7DnbvdWFlsLU43Fqdb8zcbc7fqzYYiJKQgB6kAFN8lAD/6w7epW/h0bvuPOxeChwXvSQsJZFQspO9pFvQPR8b3psb2JocnY4OjiYHx+MBwJORhSMIfD8eW7aZXrzjTV6vnvlq5ebFcXHaUR57ru45PQgQ2koGZGfDedOUPPna8wagF9YTAAyQAROA7NYZ7PMPg100YdPdV795UBkZgWMuC3q0lIt/7/vgIJvTucYFMQckSAJVSSGCaumZQLIGTB1P7T+QPncgMjsWjMS2a0EM2hiR8NDSrzo1L1avfr966XF1d7pSWWrWqB1IQCcYgy6LuIdDDW5U7xiR45Pk+XgEyr8WSwU9y95G/z07yvezle17tnl/wnpBu7d8Y1Pm7Ad4dEvI95Q1e6wd4SIf17kdBIEBE1gBASi+aoExfJDtkju1J7zuWOfJK3/BkIowVQxL+MHypVuaaizOt2Zu1G+crl75dqZVQgKbYVegDd2mCzPwQDyvfT5cuYUkgIwIxkABiBGBSSvmyDSRNSzNMzbRINzXDRKEJXSOho9BJ04gEEBEJQEQCAEIkDMocSrFiZgZWoJTyPKU85XlKKvZcUJ5n2+y6yrV91/F9VwmyNGECArJkAEbFrDbL4j7EKcN8vw+OrBHqzAp1Z++R7MGTffuOZgbHkwOj0VTWDJ+0kIQ9ID1Vq7i3LldOf7J45otCacn2fVZKCRTdyl53muGOncEfDO0QgJEo6FYJnlAGZsUghSAkJhKITALNiEhlI6mMkciayaSZyOqJlJlIGWZUi0Q1K6pZFkViumFppIEQJAiFQNIJCYBZ+dDtd1MglfJsadvSafodWzodv93yOi1ZrzjNqlOvOI2a1yg7tZrTrDi+D0oxK1asFDNLQuwSHAKPFVghAKuHCCbvfZQQAQNPVSkGZtIgntB3HU699v7wiXcHhkfiwqTQQQ1JuEY/qQpzrcvfF6+cKS7cai1MN0qFjqnFkJRkT7H/0AaB74Rxd55YBSBAIAoAgQCIPplqYCSazpmprJnKmcmMlcqaibQRsTQzIjRTWKYwLDIs3TBJaKRrSDppAuERH1kllZTse8r3le+x05GuI11buo50bOk5sln36hW7WnKqZadRtqtFu7LSKa36AixEViwVM4N/r9e6NhPFDzaM99ERBKFGIBzPMyI8NBYd2RXf/1LfoZf7dh/JRmNh582LTULPkUuzzfnpxvVz5YunizPXqp0GICJqshsp8Q/nOe+PixCBGAlZALDve7rJibQRTejRmB6N68mMnslH+0ejmXwk3Wem+sx01oqnDE17Lq0n3G74tYpTK9nVslNd7ZRX7eW5VrVkt5t+p+W2mn677rUbksBAQkSlOMgDP0I8HGSBMDiSGJVEFKp/2Dryav7oqfzE/uTAaCyTj4QkfPHo58pO2799qfLlR4tXvyuWCk6nJT1HEgkGxSC7+ZOHYGA3Q4gIACwZBehCE7oQOugGDI1FR/enhkbjA6PR/pFoMm3qltANEhrquhAaCfGcXTJm8D0pffZ95bnKd2W77ReXOisLreW55tJMc+5mvV6RykfP931PSl8RCQhSraAU833Wf9M3AWRERESNFSv2owkjmdbH9iZefmfw1PtD2bylm+LFdFBfRBK2m/7188VL3xZvXKjcvlKtFBxCHYgV+7B2xj/waVgf/AATgvB8JUyZH7AGx+IDw5HsUDQ3GOvLW5l+K5kxkxkjEtO3TYLKk82aVyvbtbJTXrWLS+3icmdlsbWy2F6ebbZrLIRGhEA+s+IfDpXvcxkQAEADJsVgRXl4Mrb/peyRU7kDJ/qGJxIhCXc4Wg23uNy5fr7y3adL574qOE2hlK/YDyaJ1od0m7qdiETEGiIpqRS40YQeT1mxuMiPRSd2Jcb3p8d2x4Ymk2ZEC2zko9QwthCYu0+HlKq41Fm4XZu52Zi9UVuabdVKTqfpN6q255MuTAbJLIP86g+5qV2rCBjUVgmFBujvOpB89adDL73ePzwZy/RHMSThjkStYn/36dI3nyzfvFCprNquywI0RglrSfmez839ZQYMTnpmUApYsRHB4YnEroPp/cezk/sSA+PxSEQ3I2RG9Z33GHmucjqea6tKyZ65Wbt9qXLzQmXqeq1edgkJCddmKvh+2/iAq4pIiKyxYhB+MmWO7IqfeGvg9Q+Hdh/KvDhFxReChI2ac/1c6fvPVy9+szJ/s+m0UWjI4DP4ay4Ubh7ydXu0kDUCQtJYKbK8PfszI7vjI7uTA+OxgaHo0EQsmbFeqKC6MN8qzLWWFlpL0435W425W42VhY5GFiAwuIolICMjw6b+xb0HHKEJCiX7AyORfcdSx17Pn3hncGQyEZJw28O15epS6/L3pS9/t3Dp62K7LREIUAGrB6fag+cDARAJQDCjYs+KiFhSy+SskV2Jo6/1H3gpOzyRMKNim3qbTyZ69GVl1b55sXr1XOnm+dLKUrtVl826y4oIBbAM2gAe3K3KgYoAIjMgCCIemrDe+fPxk+8MjO9LxRPGzr66O5aEzNyoeVfPFk9/vHTlu9XCvN1pS02IQLRlrdXzAc8EwZpEBJFGGsZSuO9Y5sgruV0HM32DVrrPjKdMorDcDADQaXmNmltdtRemGtfPVy58u7oyZ0uXfOkFDARmRv7hUw+JULAiBj87YEwcSL36k6GX3xnsH409pypOSMLHwK1LlQunVy58vXrtTLlW9gEI0evW0zfNvty9GIQ6sPB8N56gwcnkxN74+N7U5MHU7kOZvoFwgHVT2G1v7nbj9uXq1LXq0nRz6mqtXHCIdEAG8Ltpmwf0G3XFUwmRlATdpIn9iWOv5156I7/vpb5UxgxJuE2eg5Y3c7Px0T9Pf/vpYmXVVTIwbWrtMH5A11UwLxdMxKtYQk+l9V0HUkde7z/51kB+JCoEaLoImfZgKKl8n1tNb+py5ZtPlq+dKxWX7Vbd9V0m0ph9ZmZUD+z7CypEhIwkRCSG+46n3/rF6KmfDKX7zJ0n/bbTSFgrO9/9aemLXy9cPVOprtqapiuUzHLz+YA73Z5BZZCUhx67E3tTL72RO/xybmxvKjcUyeRC6/fIcBy5utBaWehcO1s893Xh6tmK0wRNRyRgkHcmN3odi92nkkAACqXYjPDgWPS1D0be+Yvx3QdTIQm3qgG0/Rvny+e+Wvn24+UrZ4oRK6bQ6Y4D/UD5AQVqAEJKacVhbHdq96HkvqOZQ6fy43uTIZceH426c/nb4tUzpamrtekbtZXZtmlEFEjF3kPcHUAkYM13/VROe/X94VMfDBx6OZ8fiIYk3FpoN71zXxQ+/dXs5W9L9YpUkhFlMNnT8x6vJT8DFSNkZmFCKmPsP9735s+Gj7yWz/RZmhG2+T8xSJ87TW/2Vv2bjxe+/ePS8kzLc5lVYBV5s/TpPbcJEUj6MhqzRvZF3v3z0dd+Ojw4Ht8Z2ZqdQMLicuvz3yx8+fv525frdoORiNljUJslANYS4oBMgeJmsk8cOtV37NXc3iOZkV3JRNoIafNUwkXFS7PNmevVi6dLl75Zmb/dlh5J9hA58EB75szumERCDVhj9Mf2xF56I//6ByNHX8vtgCh9ew+S+L5amm588duFL36zMH2tphQRMbPfJVnv7Evg4QgCzfHsvkFtZFdi//HsS28MHDjel0iF9HuKIMKRycTgWGxkV3JwLHrpm9WZm83lOUe6GhEC+mtCIffdu+AsZWBmCaiQtfmb7UZ1oVF17Y539LX+eHJ737VtbAntjn/7cuXzXy/88VezzaryfYnEaynQzTPgGLSeoRCUymuvvT/06k+H9xzOxFO6boSZz2cEZm41vcJs89zXxa9/Pz99tWG3lWIm5AfkTrtTURh0zIMRgT2H0z//x12vvD+8raf1t6slbDfcs18WvvjNwqXT5cqK0nREVMw/nAIFEK4rUxlx+GTu5Hv9R07lR/YmzZB+z/jsR4wnjPiRTLLPHB6Pnfls+dyXq/NTbWYNSTJL7hXJByFEkGwjFG6brnxf8X2olp23fjEyOJYISfjsUC50vv9s+dN/n7lwugSeQcKXvFkVeM3/BCLUg2T3+N74oVfyb/3Z6Im38hgKuT9XMuYHY/nB2Pi+5MBo7LvPlqev1hoVJjAAQbHfq7CEiMzMEnxCBCWunamXV+x2S77zy5GJfcnteEO3nzu6PNf49FdzX/x6Ye5mS7nA3TlA3oSB2D1QFZDQjYh8+d2hd345duhkNp23wo1fWwethjt3q/HVRwvf/H5pabalfFSgsNti8aCzFUBjUNm8efK9/g//fuLgiZymb7Pbus0s4dTV6qf/PvPNx0vzU22UBCgVy036p+/cJ40lKPD2Hk2+/Hb+xFsDe46kt9F87QuCWMI4eKIvntSHRmLff7Z84XSpWUIUAsDjHnE+rulmKWBXgFFe8b79uODbslpyXn57MJrQQxI+eUjFM9eqn/zr9B//c6666gMjkx/0Gm6S1EZEQiZgjqVwfF/fe3899sYHI5l+K+y63rIY3Z3M9lv9o7F4xvju0+V6SboukUBg2TPfhoCMrNgjpEYFTv+h0Gz4hHj8zf7Y9kmZbg8SKsU3L5Z//7+mv/5ooVxwhSAAxZuom9yZi0EWJDA7oJ94u//ND4f3n+hLpkPFy62OaNw48mq+b8gaGkt8/fvFW1eqnsuEBKwewENghUjtJl/4epUVO7Z6+Z3+VJ8VkvAJMVDy1bPFP/w/s1/+dr5RYkEEqFipXjbwTvuvAKWB5u07lj3+dv6Vdwf3HcsKLYwAtwcMU4zvSUdjRrrP+ObjxUvflxslH8kAdrvKbRuypowM7JHQPEdc+KYkfamkfPm9oUzOCkn4BBh4/UL5t//j9he/X+jUJGkas7+2jwR7uKCAiCR9FYnxnpf6Pvzb8ZffH8r2RUL99W2H3GD0J38zkR+JxVOzZz5frhR8AAPRV6w2rtzBQP6NfQaWrrh4elVKkL56/cORVNYKSfhYOPfF8n/8X7fPfb7itAk17ErxbpADDTqbCBAQlcRoSv/gr8ff+uXw/qMZKx42wWxX6Lp46bX+TM4a25f48tdLF75ZNa0Iss3YQxI2qF0ASCBiX7v8fanTcpt1792/GMsPx0IS/igbyHzu88J//vfbZz5bsVtMmmKWPcUI13asCABCUEO7rdfeH/rgb8Z3H8mGz/F2BxKO700lUmYqa1lxceNsrVUXJECBf0f9514eArBSHiKBr01dbSg1C8Dv/MV4/xbmofinf/qnLfixmPn6udL/8/+98f2fCp4NJIKTj3syEBERBADqOoztS7z3l+O/+K+7R3YlwhmIHYNITBuaiGdzVr1hl1c6vgccyFQibpDMWPsjAmBqVJ1qyREaje5KmJYISfjQDFR87Vzp1//j9umPl+wmk4aK5aaJUABEASysGB44nvnp342/9fOxwdFYyMAdBk2n3FA002+xgsqK3Wn6CIQAvVI1Xc8UEVhio+rVK040qqdz5tasD285EkrJNy9Wfv/PU1/8dt5uAglgUNArN82gkFGQIRUk09rhU9n3/nLi9Z8N5wej4SO7IyE0yg1GMzlTSVWr2M2aR8HOrB6qzd3uNhLIEmtlp1V3Igk9PxAxI1suBNtqH4hnrtd+/79uf/7b+WZVCk0o5W/WEYqAiEJKsGJ44p38T/5q7MipfCwZpmF2tD3U6MCJvnhSj8S0P/1qbmmuJVAHkHdlve/hIQTjwsDKE5e/KwlL0zQ69ZPBWGJrPSRbyxLO3Kh/9K/Tn/16oVECJGT2e2VigkQME1rKpVhKvPnzoQ//YfLoa/1hM9oLkaoBTGbMgdG4YYpioVMutDVhADFsmKFZy5cykWBFlUKn1XLSfZHcYGRL9ZduIRKuLDR/9z9uf/pvc+UVm0RXC6hXJia4vDoBpnL0+ocDf/3/3n/wZJ8W1uJfJCbGU8boZEI3RaXYaVQcVhrBXTGMe3mICEFpUbpULLTsjh9L6gOjsa3TvbhVSFhdtT/6l+nPf7uwsuAQim4cuEkulEAgiL5B/e1fjP7s7yf3HcmEaZgXEGZUG5pIIEKl2GlWbeYH5GmAAYhQKa262lZK9Q1Eclsmd7AlYsJaxf72T8uf/2Z+caoDihl7z1avSafpgJQfNl77cOAnfzm271gWw4bsFxXJtPHWz0c1jT791ezU5brnECIwq555GsU+MTaq8P1nq0ZExOL66J4toab3/C2h3fbPfVX45F9mr5+vKkkoVM/ZiECaS6ChpMoNW298OPjB30/uPpgJO0JfcMSSRn44hoS1cqdecZQUhD233HUXaiGB28bicisSFUMT8a2QR3jOltBz5a0r1a9+u3j524ryEElyMCO/oS8UARGElJjOG29+OPTeX45O7k+HcWAIAMjkrTd/PqIU++701LUGKA3hzpjbfSxkYATFIEvL7u//dTaW0n/6N5PRuP5Ck3BlofX5r2fPf7Xq2YQkJQdLIzbEgQCEuudBuk879X7+3b8a33MkFTIwxB3kBqJv/2JM+sp1p6eu1A1TB4SNozaIwMwMvtD0pSn7s1/NZfKRU+8OGtbzJMLzdEdLy51P/m32d/9zqrqqAF0FsicDAZBQQ6ZYkt74sP+v/l/79h4N55JCrEc0rg9NxIWGq4vtWrlDqCOoDYJR3RReULyoFDuNupMdiOaHYiTwhSNhp+X94d9nP/qX6eKCR0gKejRnB11phJpSmMxoJ9/t/+AfJg693B8mYkL0hBXVhiYSUvLibLNT9xCJcePMDWLQZEPMvlav2YIw1Wdm+yPPK8f+fKxwp+2f+aLwxW/mFm63FTOi36sxLVhYJ4DBiuK+4+mf/s3EoRP5kIAhHoBU1nznz0dbdeePv5orLXuIBKCCnML9PGRmIOROHc5+vpJIG7mBaG7o+az9eT5O3e3LlT/++9zUtTorJMIN1+ie6QgmzcR9xzJv/3z08Cu5Ldj4F2KrYXgi/tO/mzj1k+FkVkdGQg0YAdapCiJgMA8FhXnnzGeFM18st+vuC2IJubLqnPl86dLpYqcRjA2qjWPvwS5PYAJSI7uT7/z5yMs/2WYSWk8PyldSgVKKGZTkQCAeCAUBABIBCdp2sn9PEIg4sS/907+dcG3/i98tOi0ECp6o9SxkYATJLGauN//47zP5ociJtwZ3Pgnttn/m88LpTwrVkkukK+VtdES7q0FASIahEfOtn4+8+v5wNr/zNwT6rrRt5Tm+YyvP8TyPPY89V0pP+h5LX0mfHU/5ju97rBSwYukrAGKlUIAgQCQUIDRhGkI3iQQKnXQNNV1oBuk6aSYZujAsYVqkm8K0dqZnQYT7j2fszli10rn0TdV3TQaXeUPmD4FZMYDvGle+L33x2/nR3ancYGSHk3DmZuOLX8/duFjThQDlwJpczAYGku/58bT++s9G3v+bsfzwzpxOYgYG5Xuq3ZCV1U61ZNfKbq3i1Mt2q+o26l6r6bcajt30Ok3PdpTvqiCpwIqBcE1SAGDN2UK4M+nKQIiIpiUiMT0a15Mp3Yxr8aQRTxmpjJHKWIk+PdsXSfdbyaQpdIGgkKhXaLAtoevi8Mv5TtNzOrcun64REgN352/WiHiPUpvfbsvTf1gemUx+8PcTiZS5Y0k4c6P60T9Pn/umYJDJ6KoenTEcHGPAhhHx3vnz0Q//cdfgaGInEc/11Opss7jaqa7a1ZJTLXVqZa/VcOym7HR8u+O7HWl3fNf2HUf5rnJdJkBBJpGGSGtPz1or+/pAJ7iId4SwuFWRUrWVcjWTdF0YFpmWZprCiJAV1SJRPRLTozEtnjEyWTOds/qGYn05KztoxhLbXh4yEtNPvDVUKTqdupq6WiVNB/CU4o1OqQKpC70w737+u7nB0djxN/utZ9hJ8+xIWCs7Zz8rfPfpcrvBQnjQDQVxQygoWKJuqYPHsz/96/HJfdt+N3Kr6bXqTqch2y2vVnVqq+7iXL201CkWOtWiXSvarYZyXYWAiCpI3AESBnPjiLpOwAzgKryfdD3XF2y0YYSCQEOdGXyHXVs2WQZRJCsAYAQkgUaM0lkz12/1DUVzg9HckNU3EElnI7GkHolp8YQRTWq0Ddc8xFPGK+8ONatuudiulSWigGBT94aJJ0SlkTZ/o/XFb+dTfdb+49lnNmbxjEjo2vLK98VzX69UVl2NNMXuxlHdO71pgDx5IPH+347vOZrZlokTxb6vpK98V5VW7bmb9YXbjcWZRmGuWa96votOx/dc33Ol50qlUJAWsfRuTQYCX/MedzVwonCD5eu9/a0HLbG7r7h7cRGQuz3vGJSymcHreMWldq3ozN5q6rrQTWEYGEvp/SOR4Ynk2O7EyJ5kbtAyI5qmkRC4jZolhiYTr/10ZOp67dwXq62GJBK8US0FgVkB+c2qdvbL1bE9yaGJ2DPTSnxGJCwWOt/9afnm+ZqUDKi6Y1+wnoMIhMj5EevkO/mX3x3YjkO6dsdfWWgXFpor8+2VhVZ51S6u2NWVdmW106orUAJRA1QAChEYkRAUuz+wlSe4WA9TSu611e8Oge++yYaUPaFgIM8Fz1XAzCBZMlJr9lYtna32DUQyeSvbb+WHon2D0cGx2Mhk4rm3XD5sshRg4mDqg7+baNacS99UWEEPcahucCgJ9XrJ+/6z5eHJxKs/HXo2KyufBQk7Tf/C6dVLp1erqz4Ihp41ieBCMEXjePzt/lfeG872x7YL8Vhxo+G2G3511V6ab87dqM9cr01frzYqCqQmla+klMyASJoMasdrlGCGjZmQJ+sFbbKt4/7/0+2b7/Z0AQIiITA4bbXSsUvLvoZtJj+WpIHx2O4DmT1HsiOT0WSfFUvo8ZSuaVt6waOm0cm3h1YXO9UVd2G6jaAr9taJ6nc9BvKlhJuXa199ND+6OzG2L/kM0lTPgoRXzha//O18Yb4NhMhKbXjqGBiZmBFAju3Lvv6z4T2H09tlTFexmp9q3LxQvX6hfOtCqVpybdtvN1zPZkQdwWdUCBy0DqvujMg6K/fjvupDBoU/bDERgPGek+EeA0mMDCB9KZkRuNi2a+XO/I3Gt39cSmaMkcnknmOpQydzu/al9K1d7TAt8co7Q6VC+3f/c7pRBBBB69rGu+kjap26unaucun0aipjpp6+kP5Tv3C1kvPtH5YufVt0OwwkGdZ/8zXBGA0ARg9YP/3byaOncoa51Vfnep6cu1GfvdVYmKovTDeWpltzU7VOFU0jogAVCEBW4N4lC29qlX4E93gjDfHuH+Gjm9NeRwEzKMXdULVLSkHKF606tqqwPN26dr58/Xzi0telwfHY6O7E+L7U+O5kNLlF3dThXbG3fjG6PNs890W51RBEpJR/b7/omiaNEiSKS84ffjWfyVlv/Hx0e5Ow3XK//ePy5W+LnabSheZvyMcEQ1/MgoEjCXzjZ6Ov/mRwK4eCvq86Tb9WtqevVS98U7z8bXFhuuU6wXoMFiZJaK/1sDyUXwg9TqSHNGS0obgDAGqtRMEPx7wHfCTEbjx57+djAMXgAblEqBTO324tTrWRMD9iHj2VP/xKbu9LmWx/JB43NGOrJW9wdFfizV+MNeve+a9LoAg2yOkHDosEqWz95oXKd18UDp3Kp7LmNiZhcanzzScLM9ebhKAC4aaNq62QUAkrhifeHjj+Zn+2fyvW5RmYJXTa3uzNxqXTq1fPlpZnW/WyW6vYLDWNLAYF4DEr1TV5P8Ic3TsOjpt5j7iWX1/j6z1uVVeJfC3bd/dvcW8/tluY5wfycGMVqWsZGQBRCCGQNVa8ONNst+T1C5XB8eieQ5mjr+b3Hs1E4nqwo2eL3Mdo3Dj2Wn9htjl7s14p+KhRUKzB+2admJmJ0G77188Uv/9T4fWfDUaf5kaTp0VCVtBue9fOlW6cL3kOkSFZKdg4rYvATFJybjj69i9Gdx9Mb81a1OpSe/5mY+ZGbfpa/cb58uJ0y3ORBBIioK/Y7Rqfhw3wei8pDxIiAITdhCZh17u842uyUlKyJAo05wCREYEBGZgVcJD/ASIUiLT29PNamjToTwqm7Lp/iTey9EHf4j5aMkilFIAHCJommhVZL7YWp5qz1+vzt+qThzJ7DqeGxhNDE7GtU2PM5q2X3xlcmG7+6T9mpacDerw+OOxWbYSg5Rnnm4/mdx9KTezfhiSUvrx+rvTdHwvVsiN0HQA25GMYAvVeX0VTdORU7vArW066V/qq3fKLS+1zn698+9nSzPWG2wbH9pRkTUcAyaAewp5sCOeCLcLBynW8M8vCUvqIStNJCCAioSEJIsK1fwgE64RkgKajppEgQmIUFNDP85X0lJRKSmQJSjEokMzSV6xAKZZSKclSoZKsfPalEmQIDJoAVLDaioNCJTI+RLKnm9kPvhEwohIaSgWri3a9XPz+i5WJ/ckTbw689EZ+eDKZSOnPJuP/g5g4kH7rF6NTVyszV+ygP2t9sx4CswQUToeunStdP1/OD0efXknmaZGw0/KvfFe8/G3Fc5DI4w1ZwaAmAaxpwj98su+tX4z2DWytPXLMPH2tdv7r1cvfr8zfaK0ut502CxKMwNhdEbW53eAeuZMgDbn2G6kQFStmZJRKKXATaSPTZyYyZiJlxpJaMm1acT0SJSuiW1FhRoRhCV0TKFAIFAIBCUAhURCEKqmUBFasmFmBL5VyVbvjtxpup+nbLb/d9Fstr9PyWnWvUXUqq06t7IDSSGB32Q4yEmN37vwe/xfv3LAeCzoBAJCZA6nY4Ewh11bS5yvfF8uFzpXvi/uOZU++PXDgZNYwnn8SVTdo39H0sdfzleJSregjCmYJ95TvuwMWrICgtGKf/sPC4Gj8yKk+ejotCk/livieunWlcun7lUZZEmhKOeum5nmtOYSEyg1FT/1k6Mip/BYygJIXpuq3Llcvf1s890Vhaaaja6ZUgCQl+GtN0g8wEeu8TUQSwWAbMikGTzm6oZIZPRIVVkyPxo1IlOIpI5Oz0jkrlbXiKT2a0JMZM5LQozEtGtGF/uPDKtf12w2/3fTaTa/dknbba1a9esWurNjlYqdR95y2tFt+p+O1G36j6jodZWgxwsAwSgafWfHaTQPkXuHundvLzIpBMQAIIhCr87IwW751qbI401yYbhw4nh3ZlXzu2e90Lvr2z8dWFzun/1BgXwBI7rH+lxU47MPl7yqT+5fH9ifST6eH5qmQcGm28dXvFuZuNBXLoAC1MTQnEAAYz4hX3us/8mq/vmXm39oN/+K3hS9+u3juy5Va0XccTyOS7DKqbvzEmzHwntwmBlEbQfAoS8XIQD4R6AYN9lvDk8mh8XhuMJIbjvUPR/v6I9GErumECCS6pfInUc8AADAMzejT0n1WN6+iGJgVs1KgJLdbXrVol1fs1cXWymJr7kZzYbZeKrR9F0ApKZkVIiCRAAaGoJ+G4W7+aSMb75xBihkBPRLUrKmvfrNw4evVw6f6PvjriYMn+1J91nOUdSGCw6fy87frU9drC7ebuhDBs4r3GEOFDEqSMJpVvnq2vP9E5aXX+o2nsF9NewpmRM3fblw9U6qXg+4Q1UO1ggGYUODQePTUT4dGd8W3Av08T928WP72D8uXv12du9molT1NmJpgxd6a+P6Drd+6pAURaogCSVopHhiLDY3Gc8OR/FAkNxRNpsx4yojFtUhcf5aRMCKgwGB7XwArqmXzkdHdstVwW3W/VrYbVbdatEurdnGxtbLUWppulQsugg4ISvkMgbQur+VXGTe1isG9lgyKUEM0qgX33BfFWtHde3r16Gv5I6dyz3eX9YGTfSffHmzXZhtVIADF8v7AMOhgUAwwda1y7vPl0d3JwdHYNiDhykL76pnS6pLDkhglwIaRZgZCnYEzOfPQy7k9h9PG8262UIpXF9s3LpTPfF74+qPFWtFHBCSW0OklI9vrTIGuGAeBYAUKvEgcUlktlTUz/ebQWGJwLD40GR8ci/XlI8bW21ZpmMIwI5kcjO5OBAFFreKuLDZX5lvztxvzt+ul5U696jYqsl5VKDUiwagAJbNc+/49TqjAUjIwsy/BFwZ2Wv7V72uzN2uL083icufoq/nRXYnndUH6R2Ovvj80e6N29buakggE6yfwg6lf5nqJL58pH3+znh+MPPHm9Sf89CvJl74rXfyu2G752FVC3vDIAiAIMtxDL2eOv5mPP++MqOvI2Zv1bz5a/PaPi4UZu17zhBAMioE39zzvfh0MtmMASiU1AYYhhA6pPmNif2rPkcyB49n+kZgZCeYSyLDEthiZ1XTq67dSGX1ib+qlN6Xb9gvz7enr1VuXq1NXK+WC59rse+z7TCjWnHTe7LRaa48GBCAiYO7U1cWviwtTjdtXqu/+cvTQK7lITHv25cRIRN9zKH3gRN/idLO6ohA0Bn/9djVkZAbWCwvtq+eKY3uSA2OxLU3Catm+/P3q7LW67zHi+mC367wASiX70saRV/N7j2afb19Fs+ac+3Llm0+WrnxfXJ23lRJEeKfut9ljwXdbuRBZMAjP8wwLx/ZEx/dmBsajg+PRgeH4wFi8fyRK23ZZjaYLTRfRuA59kBuOjuyO73spU1wcXFlszd5qzN+qz9ysdaqgaTqTRLijnt4jBXDXJCoJwITkOrg063RaheqqXZhvnXhncHjiOUQlqaz18tsDC7dr3/5hBZXhg3//tOHdvHCr6l/4anV8T3pgNApP9J4+SRIyw62L1emrlXZdaoam2F9vRhiACBRphr//eH7/8Wwy/dxCAsVcKnTOfLr8x1/NXv6+LL2gMO6uVTC5d+qlm48gREGo+b7Pwk+m9XQ+ObIrfvBE38GTufG9yWhc6/ksbl8IQX0D0Wx/BE4AAM7cqF49U7r03ers9Xq97NXKnuugrkUV+4ySleqZtsEg5xhcR/KIqVlV3/1xZWWxVS23X//Z6PjetP5sD2Wh4b5j2RNvDdw4V6msBmqk6n6HNDAevu/i1OXqpe9XXn63P/5E9S+eJAmXZuvffLJYmGsTUa+VEkG6ULge7z6cfOvPxkYmn5tuhVI8dbX66b/NfPbrhUrBlx6CYGZ1Z/vhppnPQIaFgYE95RoW7DqUPfFm/9HX8qO7EtGEYUWFEE/3MWJg6bPvKs+Rvq98j5m75XvdEEIHwxDwdPh/58pM7k/3j8RPvTe0sti6ebFy7suVS9+v1ouO0AkVABICdAsb66mId4Y2EBSDL1Cbudls/LepqWuND/521yvvDTzjAkY0ru87kt1/Mnvu82KnjUSo1L1OEAKyYkXCaLXk1NXqzYuVY68PCA23IgkXbzfPf7XSrinU1IZ1HF09e6VY0+TeI32HTuViz0nCsFlzL50ufvXR/Pd/KhYWbMvUIVhEs2m7Vje2ZUCBGrBQbA+NR3YfyUzsT07sS04eSD9ZV6rT8poVt1Z1Oy2v0/Lsjuq0Paftd9rSsX0pmaXyfaUk+L4CCYqZBAhNaIJIMAkUujAtzYqQFTWsKJlRPRoVsaQeT1rJjP5EWuSjMS0a03JD0ZFdiYn96ZNvDd66XLl1pbpwu+G7OoAEkIwSGTdmUO9N2CBIjUStyN9+sux0pN1y3/hwJPJsJ4ZH9yTf+Nno4nRj5qpDSAq89TEtMAMTwvJs68znhbG9yb6B6JYjYaNmT92oF+ZboCwgH/g+d47XXDgJ/vB4bP+JbF//85EwrBTt818W/vDvc1e+L7XryrRIscOblh/W/E8UCMRSka7ifTQ80XfstYHjbw5MHEhG49pjmj7PU25HOo70XWl3ZK1sl5Y6pUJndbnZrPrNhtese82a02n6dpulz4EdCRoc7yQ8FACtCbwDAiIKDUwLIwktltDiCTOR1tM5K52L5IaifYNWKm1aUaGbwrSEYQld//HGJ5W1XnrDPPJKbmGmefbzwpkvluZuNmpl326yphmB09Brd+ddKgIrFCw9uvBViQgGxuMHjveJZ1hFjCWNQyf7dh3MTF+ZZ9AA1gtSIwKzRMJ6xb94uvja+0NbjoSO7d+8VLtxoew50jB40zEaJWJxOvpa/6FXcs9FnbZadD77j7nPfj13+0rNaTMhKfaYFSJuwkDsuiWMSBiJi8mDyZffGzz8ct/QWDyds35cM2TAbGbwPVWvOIszzYWpRmGuVVrtVFY67abv2L5jS7vt+57yPfY9lp5kJkF6kIntOakk7/ccXUe2Gh6sdjSDhIa6HgiNCiuiGSZFYnqm3xoYjQ+OxYYn4oNj8UTaCLoFfkQoi4iagRP7ksm0fuBE5tal6rmvVi6fXm1Vg9Mi2N3ZO32KgBwonpDwOjxzvX7p9GpuINI/8kylFfoGI4eO9139vlRctkkKdX8jGwQHHSF75vytxszN2r5jWeMJ6cE/mVexm/6V74o3L9WISLHXo5m5O3OjsvnI0VfzIxPPYUNqreqc/6rw2X/OXT9fUx4gsWKXARBps/wnIiLoSoJu+RP7Y3uOZA6/kjvyam5gOPaje1kU88pss7RqV4t2uWiXlzsri63CfKu43GlUfd8h4ODmKw6cIAwceUHADB4/zKDg2mNDAgGE8lH57HUYUAJLDNiKHTLK2byRG4rmh2L5oUhffzQ7YPUNWLnhWDZn/bisUiYfyeQjQxPJwbHY5L7U5W+LMzfrlRVf03RGqdiHTUxiV+JFULvp375cPfxy/hmT0LTo6Ov5q+dKX/1uyVMaMjPIjaogRNRq2Ncvlvcd69t9OPNEzPWTIWGt7Ny6XK0s+UTdI+S+yV1gBEImM8qT+5OTB5LPZa5l+nrti9/Mz1yvS5eRgLsTPdgzAYNAiCQl67qKp7T9x/vf+NnQibcH+gZimo6PzEBmx1auI1stvzDXuPp9cepade5mvVRwfA+UUt3e62B4ieBOQXWtY1rdkV6DhyfhWgllbdqQ1hRJu6uKfEetLtilgnPjfF0gCJ3zw7Hdh9P7XsruOpDOD0WjcWGY2o+opKcyxom3B46+mj94ou/z38xf+Hq1XLA9Dwl1BsnMPRtQEZmRfZcrpU7rOayFoIn96SOncpdPl4tL/t3Bzfs8UlDkAcCN89XLB4pD44l4Sn/+JGTgdsOfulFbmW8CCEAvmMa+/0cQUQOE/hHzyGt9/SPPp0lt/lb94veldoNRoGJ/w8ase5s/GYF8nzTd33Ms+er7QyffHhgYi6UyP7KgsjDTnLpcm75enZ9qlFec8kqrVrbtFhOaiBg09xGqQIUWNpNe+3GDwrzeXb2rVYGCEVmS8kmhcG15+2ptpdC8fr6SzBp9g9bYruTuQ5n9x7OZR9dZEYJEhI6/2Z8dsPYcSX/7p8LZz5edBgkD79RZN3inDKCUQtdWri+fy0MysT8zsidRrZQ8BxBoLVS5+wmV8pFEYc67danyxofDW4KEwLA82zz7eaG02mYmhvWVibV5UjYNbdeR7EtvDsafkwZJeblTX3GFZknV6pUIDcwMIQCyITQ1vDt68GT6lfeGXn5n4EcMVru2LBY6y/OthZv12Zv16Ru1uRu1asnXhQWoUCASK27fFYXp8eu9xarHrCn0EKZRIO82HTADkiDsVGGh4sxJW0Exk9cn9qf3HM1M7EsOjMTyw9HcYPSRgnmh0+SB9Oie5Oie5Ohk/NLp4vxUo9VUAkghrKvIATz/bqKhsejJt/pXFhtL0y4CS1b3GMS1oXtE6dDCVH1hqtGXjwjjcV3SxyWhlLw817x9udqs+QBi46JwYCAgpfxoSpvYm8wNPp/qvJLK85QCFt1Bdd5gAxHWpiR0S47tTbz7F2Ov/GRwcDT2SPvYpK9cVzWqztzNxuVvV89/s7I817HbSnrS96RpaQgy6InrTjU/Cd2nh+Mq9vihe/J/3I0bGEFqGrIU9ap39Wx56nLLSuDYrtjhU/mDJ/vG9yZjCV03iB46J6xpdOSV/PBkfHxv8uN/mblytqg8JGS1mcmnJ677+LBIZs1Dr+Qufb+6Ol/2pdog0IprYYFfLaqrZ8qDY4mh8fhjftjHJWG74c1P1UsFB6TG5K8bMA8y6YDCjMHeo+nJAynTfD692lKqtQos93yQkREQFUM8pZ94e/DND4cPvZLLDz1aGrrT8m5drty4VJ26Wi3Od1aXWsvzTVCGIMEYvL5/9wPg45z89wzd8j08eoA1/eE8TjdLySCDpBQhSY86rmrW/VqxU1hoXzy9OjwRm9iXOnC8b2xfynzocFFomBuIHn+jf3muOXur3iip9dncrQESNLwrPrk/de1spVqSawr56y++Qr9WgitnVg+93Dc4FnvM1qjHooSSvDTbmr1Vd21FSHKT9l0CLZagw6f6J/al6LmtusbNGBiwEBGUwnhKvPbB8Ad/N3noZPbhZzt8X5VXOuWCPXW1eu18+dq50sqczVJT0gcgFFKBv1bxYHhIEZofSMEg3lmwd1fP6V6t/AcElg+Sq7gjZ8OBUhAyo48CfA8Ls87KnHf1TGl4Ij53u7H3SHZ0MpEdivT1Ww85WJDMmIPjMTOq1UvelpXRj8b0if2p4cloo+aw1ADc+yoVCMzMoNwOLU61C3Nt92VlRcRzI2Gn7V+/UJy/1fBd2WNZQtcQIjNnctaeg6ncYHTrtlMiSV8OTSR//l92HXo593CHBUsJdtufuV4991Xh8uni7FSjU5dOx1eMgoADrfs1IYyHHtK9Mz6Fd9UNuyRDWFstsUYUBXdk15BoTWTtrigb3NG2uTMBqB7CAt/RO7zTqC4YFDN7bTV7o7483/z648WxXYnDr+Zfer1/fG/SimnaD1FRKWZmfNQM77OFEDC+N3ngeG7uVqNd0xjcdS3dwdQyotZuyPnbtcpqZ2g8/jxJeOtiZWmm40teS8Ph/Y8SsmIriWN7tzYDg1qs5HjCGN0Vf0hzXVruXL9Qvn2lOn21NnuztjjTIrAQCYAApGQZVAIePAp8v5rvvVYOgRGZGIJ/AzIqBFAslZTgKekHi1mERsyBv+0rjxFJkCFIh6B/E1R3HgeYUa0d5PwQedd7Pzgzq2CthSBk1p0WOU2uFksri50bFyoT+xN7j2aPnsonM+aDSSglbxoLbpXTmAbH4nuPpb/8vd6uMQD1XNyAyJ7L81ONuZv13EBEf4x+18ciYWmlvTDdbFZ9XScGua5ZFAAIDV85w5PWkVfzyeyW33dHSilpd2Tqh5zPWrEze6tx9fvid58t37xQddqsGQIBGW11d83Eg1TY+F5da0AkQiZgwmBqXUlWnm6RaaFhCs1ATSehCV1DzQDT0nRD0w0SGmk66bpQoKSnPF+xz9LjjiM9W7quklIpV7me8j1lt33fVa6rkDVB2tomDMWoWKkHKlasHf8A0JWXc7syXS4uTLVnbrS/+WRp/0uZlYXWybcGR3YnftAkbvHpEjOije5ODk8kyoWKtAEwWOR0X62CUfo+z91uXD9XPnSy7/mQsN3yZq7WGlWPiJC6Ypb35+wQkZSC0T2JA8cy8fR2WOKj4MHHtN3xb12sfPXxwtnPV6urdrPu+h6aEZ1Z8X1Thr07Ue9q0HRjubXCvAIiRgECQaHSLcjlk/nRWN9AtC9npvqteMKMJbVYwojGhKYLFICIBAgEFGgWMgQfgZmVAt/1O23ZbvqtuluvuLWyW1hsVlfs4nK7uNLxbUms+8oDZqWAQHBXsSJIkfbU0u9+p7Vv2b3DhGiZwlfq1sVatWQvTjf+/L/u3XUoDdscqbR14KXM4nRredolXSgl1x1JiiVKKi85MzdqjbqbyJjPgYSl5c6tK5Vm3UWCdYqGd5RHpPTNKI7tSg6Oxwm3/kY7fMAxzQztpnv1TPHTf5u9+E1lcaZhGhEgEkJK5TxEtrMbDa39jAAFAMQKUfjxFOWHYtl8JJM3Mzkr1WclU0Yya8ZSRiJtxBKGGRGmKR5VGYkZXMfvNL1Ww29UnGbdq1WdRsWpFu1qyS0V2uVCZ3W5YzeBlQBkRIkAwHIt09pLMf2eb8mgmJVij5BYaSuz/vd/XJ7Yl07nrXSfua3HKRNp/eDL+RuXKgu3WwI1AA82ODWE6DpQXG4XFlrD4/EfPT7240m4PNe6fbnaafqAvFHGAgEZkNkdHEsMT8S346bBDalgdetS5dN/m/32DyudBhqmxughqOC74wMEoNbWtBASABEKpZQCLxITVkxYEZHOJ8Z2J0Z3J4fG44Pj8Wy/ZVoaESAhIhL9+OFgRDAtzbS0VB/zeFwFe6EkO7YsFzsLt5vzt+vztxtLM41a2bPbvt1SraZvaBYQK5awph+zWbPOPRNJzOhrwqyV3WvnSxP7U4m0qWnb+HYbljaxLzm6O/kVLHfzi7BOEJkZAREbdW/menXPoUzyxxrDxyFhc/ZmXbqE6PO6VrVgcIXJiuGew5knrsnxXGB35MVvVs99WWzWlUBk8O8I5jyQgXfynKgUAyhG1DTOD8cm9yUnD6TG96b6h6OJjBmNaVZMs6L60zAfiIji7gYZM6IlMsbAcOzA8b5Oy21U3KX51vzN+tTVyvWL1VZVKckMinCtu73r2zxYQoYVSs/jwmxrZbG1/1gWNLGt73gqaw2OxRNpvd10A42S9ULdzEjQbnhTV6orp9rPmoTthre61KlXfNOwWHmwofyFiKBELCn2H8sOjMYAGGB7az00qs70jVq9rBBZsvtA9Yp79auRUAcQvueRKfuHI0Nj8cHx2MiuxPBEfGRXon84+lzE4REwEgumeyMAsPtIeuVIZv9L6YMnmwszzeJCe2muUSx0SBqkCQYP2O+mm3odOnfUAZXiZt1vVj2lFMD2JqGmU/9wbGRX8vaVSqD/1NX8X/vOQeG30+Cpq/XCQnPvj93u/mNIKH1enG2sLraYg9BhvZpTEE34UiaS0Yn9iUTahG0OZq6s2p2mzyro9t+MgWtDwEG2E1D6PmiuaWl9g/rwrr6DJ7JHX83tO5aNJrbW1g0roo/vS43vS735Z1BesW9eKl/4euXK2cryTN3uSLvjIxMJCkSDubcId7enS/lSSrndz9wAA2Ox/S+lCwutZlkCMdyz1AgBGBUy+T4tzzVXF9vPNDHTaXkz1+qri+2g9LSx8kpAipVu4uC4NTCW2AE3Qylot30pJSJsvl++u+uOGZEJUWdmKy4PnswdPJHfczg9MBpL91mZ/NbOWCBkB6yT2cFdh1LvFuz56eatS+XzX6/O3Wyg0hh9xRzkAHp2//AdgW7eAbcdRibiB4/nzn252ii5AqTccOYAsE56s9peXWw1a248ZTwjErab/tytemG+KQSu6wC8m99GTuWM0T3JrXbk/1gSMqiN7bz3f/XgzrDODJqh+keNgRFz18HsnmOZ3Yeyw+PbKTDWdcoPxfJDsd1H0pMHkmN7U7evVBamGoWFdnml7Tl3JuV7eLlIQEg7Q2hOaDS6J5lIG8zttbxHr6OHubhsL881d8fT9OhaJz+OhO7CdL1W8QmRQa37WAgIKHSdB8fjE/tSj9lWt5UsxINEgIMhDEQwIxRN0Nje5Ik3+o+cyg1PJoJtSts2LhLj+1JDY/FXfzI0c6P29UeL3/xhvrwk12bWdj4yOSs3FDEiFd9VANStpt7TG6hQImFxuT17sz4wFks8uhrijyFhveIUFtsoDSa3984zRk0Tg6Oxsb1Jw9gpJNx06ihQTkdm0E06cDL9ynsDew5nBkZi+aEo0ra3CJpGWpwicT0a16ol+8aFYmXZDjaEvggkNKNiZCKRyVvFRRsAmeWGrQ4SCIuLrdlb9aOn8s+ChHbHLy23m1VXkO6DzdxLpppR0zA3HM0PRQFfhDsFxOQrLxIzDp7IvveXE9m8tfO+o2aKdJ9pxbR7Fy/teOiGGN2d6B+JVlZcf73qBQZdtQKhXuWFqUan7f+Yh+fRkoSSy6udpfm26/gKfOCeDEOpPD3C+cFINKG/EDcqkLFCNk0RS+iRqNiZ31J1bT68ICdrYAlNGtmVyA9FNF1Dpg3+ETArJFS+vrrYbjXdp05CX6nScmdptuW6KlgqcL/IPRMDAukRHBiJZvMRgS/M3UIAJiEQELf4lMCPJyErKZViBS8SkHBwIjYwGtM1AqaNsyZdIqFo1Ozyiu1L9XRJqCRUVuyVuabb8ZHURoPAIAAonhAT+1KZvAmIL9LtAsXAcqdy8MVFLGbmh2JWnDhQ5u41cM0sfYdXFlrVos2POC/5qCRU1ZJTXO5IDxkUQ4/tO4QUTegDY4lExsTwBu5Mo/+CfWHkVMbKDVhCCx553OAEAaDveWplsV0p2vIRA8NHI6H0ubzSadUYQWOQvYpmiEiRmD4wFkumTQhZGGJHHDuJtJEfiVoxgUwIyD3SAsqx/dXFTmXFVo/okT4aCdstv1qypYeI1HOFLQIgYjQu8kORHTA5ESJEYFmSGWNgOBqNa0S48ZkPeoQ8j1cXWtWi8xRJKD1VLnSaNUfdmcJeL6yGzKzAT2XN5PbvFw0RYo1mnEjrA2OxSFwDEIDYK+hT7FN5xa6VbPWIqZlHIKHjyGKh3W5JYNmrZ7CrXWlFMZuPGBaFNy/EjqFhLGkMjsWiMZ2YevXqsWKFIFyb6lVHyadFQrbbfqlgt2qeUtyrawmJNMUyN2T2j8YNUwtvXYgdA00XfYPReFpXyPeanTssDAbtlcJ6xWm33KdEQrQ7fnW13WwErWrcy2ojIaZzViZnPcE9piFCbAWYJiXTFgqfFVNv4jAAdFp+tegoyU+DhOB0/PKK3W64agMJ1/IzKDRKZc10n/lc1g+GCPH0IHRK5SwzttY4tGGkRiGzVK2GWyx0bNt/SiRU5VW705LA3Z7lDQcBIUEya6b6rJCEIXYaCTVKZ81MnwXEuAlxFMh2w6usdpyOfCok7Nh+veJJTwQ77nrYYhSImMoaqYxJFLqjIXYUdJ3SfWY6F0FQm7SCsVLcbvjVou3YT4eETst32xJAA8Teo40AQmCqz3oiS9tChNhq7mi6L5LOmkQEm8WErNotv1Z23M5TcUe5XnU9T/XuFmACIJZ+JKrFUrqmi/Cehdh57miqz0xlDBKATBtFFpCVAnZsv1FxXFc9eRK2m16z5kjZY3hprXUGfOkk0kYsGprBEDuRhAITGSOWMVFQD5GrwElVaHdkreK4zlOwhM2a12p4UqpAy2fDJ0AARCFTfUZYIQyxUxFNaPGEjsEmvZ5pEULlUbvh+85TsIStht9q+EpyV8ppw0HADIYpkmlr++qphAjxYFgRLZbQkXoqnSAAAzKh5rT5qSRmWg23WXd8L1hz2TsoNUwtkTUMMyxOhNihHimRFdNMUyiloPfedQBA3+d20+MnTUJuNb1W3VVKwd3u7fteh5lNi5JpQ7dCdzTEzjWGUS2aMKRyA0WTHrYIWUnVanrSlU+ShMxgt6XbUUoy9m5YAwAwLZFIWWZoCUPsXBiGSKYNxT4AEPXWu1KsOi3Z6TxZEgLaLddueUqtZUI30JABdUNLpHU9jAlD7FzoBiUyFol7rc99VAEAKdnp+O229yRJiAiuo2xHqmAN5Sa7Z4WGZkTTtdAShtjBJBRWROg6MUNvnQtgJZXT8X1bPUkSAoNrS8eWSvGm+5WYNZ2siAi7RkPsYAiBpqUJvWdY1p2yZwlOx3eerDsKzK4jHVspxZvKUAOQhlZUEyLsGg2xY6HpwooJTSfehAgIoBTYtu8+9CDFQ8aE3Rftbtzp3bwKuk6RmC5CdzTEDiahhtGo0HQC3kR4DoMt5eoJW0JW7NjSc5UgoXqVKAL9KSHQioQ9ayF2tDuqoxnVNI0QenqFHKgke650nCfrjgJIj6UbrMLquTYZgVkYwgxToyF2Ngk1NE1NCHzAmkrF7Lvse080McMMyldKPeDnEQAEIoWqFiF2NAhJaISbJz6C/VzSY2aGh5PiftgSBStQ6kF75wMPmUJDGGJHAwVoOv2AqjWzlEo+kC+PTkJAX/FaanRTciOhCAfqQ+xsEiIK2qSF+449YlSKlXzY/XEPHRNKxXeZ3UN5MRjvCFOjIXY6CYEECqQHRm8gFUvJD7kG4qE4o4CVz8yED9yyhAhaGBOG2PGmUCcg3iwo6/4HqZR6WEv4kBMPDA+x7gkRIHRHQ+xoEHUn2DfyAdcyI6CYFTz8ijztITmID7FpEBFVuJsvxM42hADIvMlcfdexZABFBMD0BN1RACSBCOrBKdcgGA3vU4gdDCmV8hXLzfffMiKCEIjiYfMjD2cJEUlDEqge4OQisAL2QxKG2MlgBunzA6M9BAJB+PBN1A87WU+ERHfkRrmHJQZQzD9iYXeIENuLhL7kB2dIEIAEaA9tCR+yTgiCAvvLm9pgAFYQuqMhdjoJWflKqU1pyAAILBBIw4fMzTw0WYk0jTbnPwdZWRm6oyF2NJQEKX+AXUhIuiaQ8AkmZhBR6EgCGBRtsoYCEFmC68rwPoXY0SRUvu9LyZsTjJkJCUgjeKLZUdBN0vRA16an0hsDgJLSeRQJ/hAhth18X9kt33ugoKEQaJhCN55oYgYJrIgwTGK4I7e4ISZE8Dy2O2FQGGInQ0rV6fhKKkbsFRdiMEdhWmSZ2pNs4AZA3RB6RGyqdwqAAL6nnLbvhx5piB1sCT1w2tL3FEKPPCUDACMJtCKaEXnYkaKHnCdk09IsSxMi6JnryUL0fdXpSN8PqxQhdq4l9KQdPOSbGDkEEIiGJR5e+/NhEzOGJUxLEG328wzA0udOx3/4geIQIbahJVSdtr9mCXtaLEBC0yLryVpCYDBMMixCwp6b2e64o3bT87wwKgyxcy2hz3bL81wJCOvXk61lLZHIsDTDfLKWkDgS1yORbqUQe1tL8By/XnHddpggDbFj4dh+pWyD0oLRoo1aSwCIgq2oFo3rT5KEABiN6dGETt31iBsXZTMjOrZqVh3XDUkYYgeTUDUrriEsAFC4cSMMIqAmRCyhP/xSlof9uVjciCUNErjJYCEjgGvLetV1nDAmDLFjYbdcu+OhENAdKsL15kixpmM8oQPikyZhUosldNpcQwaRXUfWq65nhyQMsUPNYMdvN321WbsMAjAokJoBVvQRFgQ+PAmNeNIQAhl6qT0xA6LvQr3S8ZywThhiZ6Ld8lsNHxh7jTIxMAIykozGhG6KJ0/CaEKLJnUhCAHX21kMskRMpNdLru2EMWGIHQhmbtW9ZiNQFOVeKk7EDIZBsZRhGE/BEuq6iCc1Td9EWgMVgBLCbNa8Vt0Lb1iInQffU7WyXS/bUgGgWic6yAwEgIB6hFIZUzPoyZMQABIpU+golQS17hTAO2Gh43n1ktNphcYwxI4joa+qJbtatFkp4B6JD0YkxFhcT2UtM/J0SGhGtFhSAPkAgLyxe7XbTFcpObWS/bBqbyFCbB9LWC05tbIjeVMJbESKxPVUX8QwtadEQr2vPxKJi6AY0utHlFLQqDjVkhN2kIbYYZA+10t2reyAYsAe23IREAXGEnomb1mRp0NCw6LsQDQa1wiRe+kuAkuloF52amVbhs1rIXYcCaslu1n3EYi5VwmAEQGjcT2bt6yoeCokjES1TM6KxXVA2nAGrEk9KaiU7GrJCXUuQuwwuI6slh3fFoAErHrtgkCBFI2LTL/1SEvjH8kdFZm8FU3oSIg9/iIzMjOWV5xyoe15YbUwxI5Cs+a16i4AEYKC9cnRNSJSNGEkU+YjvfIjkNCK6f2DkXjC0BA3NM0hACglCalRkUtzTS9sXguxg9BueYWFZqPuMXT1DvFe88MAhIolaV4qY+kmPi0SGjplBiLxtIHYw99FRAZGRPZEpeS0wypFiB0DhnrFWZ5r2E0JSm34j4BAxMTgx7MilbNI0NMiIQAk02YibaC408W9cXk9MECn7hWX2+F0b4idwkFuVL3CXLvdchWojW3bCAxMmkH54Vg6Zz7qls5HI6FhiUw+YsaQQSLSxsUYzMCg7I5cmW81a06YnAmxM9CoOMtzrVbDA5C9pGUQgHSTBkbimZxF4mmSUAjK5CLpfh1IImxwSrvletVqeMtzzVrFgZCFIXaAJVRQrzilQse3gYF7zrUTCcMU/cPRbC7ydElIBNm81T8c1Q2BQAi4QX5UMchW3V2caVZLDoQsDLH9oZQqFdqNigLQgXn9Ux0I3zMZBuWGIuk+k56qO0oCM/3GwGhUtwh4vegbQlAqVHaHF6datVWbw6gwxPZHpegUl2zPYaKgSfuuLbzbvMlgRvXcQDSa0B/19R/RHdUw2x8dGotbpkAQG6xy0M3GILVayVtZanthyT7ENofnyulrtcJCw/N9xesCQgZAAgJABU5ffyTdZ/yIt6BH/HlMZ8yB0agVFYo3/btI6Lm8utwuFVrhXQyxvUnoyYWpemGpI30fQPG6tmlGQFRKxeI4PBmLxvRnQEIAwkwuks1HQXjMgNhzylhJX64utRenG2GhIsS2hmvL+dv14mJ70yXZKKTk7KA1vjtpPSMSAkQT+shkwopKpRiR7vdHgQEYWUpZmG/N3ay7dti/FmIbo1H3lmZbzYoPgAwSewxPECjMDUXH9qYiz46EMX10TzI7EGGlMJgnXlctBKkUF+ba09erdickYYjtCql4ebZZK3vIOt41NPdEhADEpJTKDURHdsVNi54RCSNxfXxvqn8oqiSss4Rr7WsKgdp1tTzTrpTt8F6G2KaoFTu3r1RbNZfEpmuqFSvDEtkBKzsQfXiZw8cloWmJ8b2J/tEoICKLDZ4yBv8SpFWL9syNmhN6pCG2J5ZmmzfOlup1G0gpUPe7ewxAAORLJz9s9Y9GH7U8+FgkBIBsfyQ3HI3GhZT+PcHgvR9RIUGz7t2+VCkVOuHtDLEdsTLfuXmlJl1CVBuklYAYmdGM0fj+ZP9Q/Ee/y48kIRIOjSb6R2KMHgAh44Z2OgZUnba8caFSmGuGtzPEtkOr4S7PN1cX26AEM28oTgQ+H8WTxp6DmcHxZ05CABgYi+0+kIomdN7oCHeVSKX0aeZ6bWm2pULJmRDbCp6nFqebC9MN6TMSBa1p6/OiiMAQSxq7DmX6hyI/uknzx5NwaCy291gmnjJAEtwvOYMAjMzABFqt7CzNNIuFjgr110JsH3Sa/s2L5bnbdSGI2d8QbTECKmYUKpuzhsZjSPiQy7GfJAmTGXNyfzqR1BkUrreFXVIyKmScvlm7daXqhLWKENsHzapz/VylMNshRAa5Zlzue8iZVTRJQ5PxdJ/1OO9Fj/OXB8bifUOWpoOUimCdEmnQ3u0LgfM3a9fPlZs1J7y1IbYJuFhoT12rOg1CArVeWy3QkCBd04bH47sPpcyYeG4kTKS0yQOZ3JAliBhEYPzuZaEEBYjVFXn9fLG8EhYMQ2wH/gGXC87tK9Vyoc0BQRhwYwGQNd0wJvYlD57oi1j6cyOhGdX2H8uO7U3ohrbWOnO/T6oUIiilFeZbC7cadrjEN8SWh/J55mbt2rlKpyMBfYZ1i9C6q2BYsRHB4cnEwFhCaPj8SGiJXYfSY3sSmkGB/loPzRkABK5X3esXigtTDSXD9EyILQ3fU7PXK7cuVNyOYvDWKW0zADIiIOkyP2INTcQNkx7zHR/z72O6zxzZlUhkNCYJuH5HBXZn7X3X5uvnarcvVaQMaxUhtrAvylxe7czcqFVWXVaCN25AY0BEQi2WpD2HU0NjcUH4fEkIQsOhifjEvoQZRQJtYwYJEBRI5dPiTHvqWrUZLk4LsYXRanjXzpZnbtZ9n5GQe5cdEFHL5q0Dx7P9I1F87iQkpKHR+L6XMom0hqAjUq9GUkZCp6Nmb9enr1bCuYoQWxbVsnPuy5XFqYb0g/1nG8uDAIDKl9nByOSBdCJtPv6bPi4JASEzGD30cq5/JHZnaduGMV8G9pVSszcaX328XF0NW0lDbFHMXa9dP1+qVxSQUiAB4T45GQYgoVhFM2r3wUzfYOSJvCk9/ktoAgfH4mN7UmT4Sq6J4dw9QhARFDODLBXs62dL82EraYgtieJy5+r5crXoasLoZmDu90YJkFhnlgdeyh04kY1E9K1CQgCIJfX9x7OTBxIACljvMdyEjAyExupy5/rZUjUcMgyx1VIyiq+fL5//stCqu0i90oddZ5SI8ODJvgMv9RkWbSESmiYdPN535JV+EkDcu3uAAYjYbsqzny9fP1eWKqxVhNhCqFWcq2eK09caSqFij0Hh+r1LCICAMjcYnTiYyuQj9GTY84RIKDQa3Z3YdzQTT+tSye7HXV+rYADfc9X1s+WrZ0udRpgmDbFV4HT825erNy9XnBYTCmZe1yITbH1hCdEkHn4lOzwRX3uutwwJA9YN747vOpgxIooZkWmjR6pYIZDTppsXytM3auEOwxBbBOVV57vPlmeuV4VGG2djAwuCKFhCNm+efGdgcCT+BN+dnuBr5Ydjr70/1DdsKglEYmNcGMxVaDouTDW//WSpuNgOb3+I5w4l1dTV8tkvCrWSQpKwoV2bg32ErIROI5Pxgy/nzYjYoiRMZYyTbw+O7k6QCIZ6gTcQkZUkVKVl75s/LNy+WpdhF1uI5wrp8+zN+qXTq4XZhiCDgRXfN5rHEGT4BQoc3hU9cDI3MBh9sp+Bnuir4cBY9MCx7MBYhEhhj7kKZGRGBUosz7Uuni7M3a6H3aQhnmc0aPsXv1m9+E3JdxHRC+YOesRarFkWHXql79hrOc0UW5mEYFji0Mu5gy9njYhAEAjrIsPuNg1GKT288l3p/JeFTivM0IR4PmCGwnzr4jcrC7c7SqFSEtZ3qgV1CQRQyZx5+OXc+L7UE/8Y9KRfEHcfyhx+JRdPa90aRC/xcAaPFS5OdS6eXl2eD2v3IZ4PVhebZ78oTF2ruY5CYEa1XsyJARERRDRJew+nJvanTEvb+iSEWNLYeyg7uS9pRpiAEGldE1uwvoIAO22+dal89vNCtRQO3Yd4Dpi+Vvvuj4XKiougVG+ZJkbQCLWBEevEO4ODY7Gn8THoabxofjh64u3BoYkYoFhb6Ls+Q6NAIspywTn9ydK1c8Ut5aQ8wp+G2LbXqla2L363evtS1ekAowRU64eWmAGIFaBQk4eyx17NP5F27WdEwnTOOvn24P7jWSLJzADIG5QvGBSD8j0xdaXx/R+X56eaW+be4SP8aYgfda2e+532PPX5f859/fvFetUlulMZxHsZSISEgjQ5eTh+7LVspt96Sh/mqZAQEQZGY8de7x8/EAeQAnVAvN8pDZLALATaHT77xco3Hy92WltA/IJA03s8QpqGpBFiyMSHoqCg3k+WpgkieO5XkZWavlr98qPFxak2Ekj2gj2D954RCMCArLRonE69N3Dklf7Hn6B/piQEAN2gA8ezr/50OJHWlAoe33UZGgRgxT4DL8863/5xYfZm/fn7UQwsufubNQCAUqwkh8qpD+mLqrXrdu81DC5j8NvnSkNenm9/96fluRt1ZIGEzBs0O4O2NUZmf2R38qXXBwbH4/TUDg/t6X3VwdHYS6/3n/uicKVSRQWIxCzv/SKIa99fabcuV7/63UIiba515T37R4cBwHO4uNyOJY1Oy1OKAYAIhCC77dfKjutIBg7DwwdeQ5aeqtfc0lInkVaO3fVuhEBmaNe9RsX1/eCUe06OqKuunS9/+Zv5WlmigF4na9AgoytWfUPGyXcHx3YnoGcBccuTEBFhfG/qxNuDS3PN8rKrGTpzr2ZRZCDZrqvTnyz3j0ZT2fFYwngeDxAQYa3kfP3xwtS1utvxgm4eIiAix5aFhVa16DAoCA3iZtcQGRk7Lf/25aqui2hcu7MilggZ2GnL6WtVpx3MKDyHy8jM09dq3366NH+rxZIUeMA9yUXMSMT7Xsq8+v5wPPV0H0jtqb56qs9888Oh6Svlr0orsNbIdq/zjV2PxSfQF6cbZz9fGRhNHH21zzC1Z3lvEIBZCQ1Wl9q//+dpTaf7+ngQQSlfgt2SSikMszSbXkNmhmbdvfjN6o0LJSGEUvevE5PseWx3/LVtJc8aK4vtP/3n3IWvVnyHQVOgAjlDvJ+niEhK+QND5tFXcnsPZ552EPvUn/VdhzIn3h6cn24Xpju+0pgl3zuwvLbzHhGk1C59V06kjYGRyMiu5LN9grofQ0loVQSyAFDdzxicHSgApAIJEGznCVm46TWUPrFCr6MhE9y5VAyAyBDE3AiguKei7tNEveqc/7rw7adL1VWPiVltFLdnZkAkUCKe5FfeGzzxzuAz+IzPwODgsTf6S8XO7/7nTGWZkTDIetzHQwDJHgHVV9XpT5cGxuMf/oOR6bOe9TMErJgR7HtCg7ueVhDGYGgHf+AaArNixQxy7QC7L9QK4sZnn2dWii9+XfzsV/OFuTYr6HZPbpD1BSBkIoP3HEm98xfjE0+hSa2H7/sM3mN4IvHKu0OTB1KaAQhITD29GQZGgdVV98vfzH//xyXPfeLThvwQDxFz738UI+NmEngP+/ovjEVcu2IbLyPiDzLwqWShF6Yb3322dO1cTXoCiDfoanczc4QaCRjZFTvx9uD4M2HgMyKh0GhiX+q194dGdkcRBYK+brpirbGbGXzlw/TV+pe/XbhypiSf3FbDe/LkP/QIbf7PD9lAfuh32aaJlzuXkX8oPvzR1xCDN3myIWOlZP/pV7NnPl9p1XxWzCzXnadrqk4ICgwTj5zKvvzOUDxp7BwSAkAsYZx8Z/DkOwOxlB643byhsRux26bgOXz9XOWT/z0zP9V4YgeBICIEfprhHCMiIO1YDiKRJqibwH8ql5GDAh0SPkF/1XXk2c9X/vir+eKig4IZPNgYU7BCJAE6CH/8QPzEmwOjexJC4I4iIQD0D8eOv9G//3jKiDKyhut7aLrmkEGigFpZnv28cOaz5eJy60lZY90QRMhKPVm/sXuiMgCAGdEMU+zUxhpNIyuqaTohEz6dU4wBhcBoVDee0Mye76lzX6x88q/T89N1ZAKQ6/Lz99gA8j3sH4m+8+djh1/OGU96aHBLkFA3aN+x7BsfDvWPWJ6nqEcPTdcpBVSItLpof/6bhXNfrTyp7aKpjB5JCskeggBGfkIIXBlAUynIDcZyQ1Fd25kkJIHJrBlPGlL5wZPMTw7AwITImmHo+ZFoNv8EdHWV4ulr1c9/PXfx2zIpDcjDjbslgJlZoOb5MhLH42/kT703lMo906TgMy3HpbLWq++PLM82i8tTjZqv60Ipf2O2gxUrcIjEte8qVlSks9ax1/sf/2SaPJh96fX+s18UOk0SRIqfTL2YARA1lpxMGYdP9U3uS+nP8BB9xkj3WfuOZq6eKa0ueoZhSFDA8vE9fAYERFLCY5kdiB091Tc4/vhDQzxzo/7x/549+8WyZ7MgkN2iJW5IAqECYRj+S29k3/2r8YHR2DO+quKf/umfnuX7RWJaps8qrbSXZ9qg9GAR8b15/7UuU0VIREZltdOqO5mBSG4oQo/nBMVTumHQ8lyzsuoRaNj1JPGBeYTN/+nGRUSoEwrdUkdey/3sHybG9iWJcKeWMXQD4wnT8+TsjRpLE4MoO8i44I+9jIiAKNAEgOyA9vrPht7++Xi233q8a8hLs63Pfz332W8WSoseBqIqG5Z9BukJRGLmwYnoB38/+cYHw5rxrM9Q7dnfyIkD6Xd+Oba6YN++0lCeAFTM6v6eUgAILJXttLRzXxbjadOyxIGX+h7nvsQSxktv9Ddqbjy1uDTTbNTYc6RSAAg/ojdXMQODEGDFKJXWJw+lXvtgZHJfWtDOzcwAENH4vuT7fzXh2PLGuUq1Iu0W+36Q3P8x90YpJgIhMJ6k7ED0yKvZUz8Zzg1HH/MUqxSdr3+/8PVHS6vzDgLKbntar1AQSEnIDGiv/XT4+JsDz56Bz4eEAHDgRN9bv2x32lPzNzsIpNaV77tUZGYUAjpNefoPS4aB0YQ+tvuxOmlSfda7fz42vi915UxxYarRqLiBEPiPSKUwMwDrBmVy0cn9yf3HsyO7klZUg50OJNx9OP0P/5+DV88Ub14sFwsdz1EMjD8qL8ysiMg0xOB4bNfh9L6j2dxARNcf6yBr190znxU+/+3C9JU6MzH6PRnIzIgCgCJxOnIq985fjA+Nx57LJX0+D01uIPrqB8Mri61mbaladBA1Zm+Dxk6gF+wDisqqe/oPi7Gk/mf/x+7B8ccas0hkzEMn+/LD0WrJtts+d5sH+dGfHkRgFBiLa9l8JJ2zXpxpQ6HR8EQ8kTF2HUy36q4vg/rMj/IaFSCCpotEWs8OROKP3bvPDOe/Xvnon6enrzZ9H0nIHpNK3TMUiTXS+fDLmXf+YnzX/tTzuoPP6eRGGB6Nv/nhSLPqfvXRotfp+uXrkjRBshRREdDKvP3pv81aUe0X/3VvMm085jM0MBLrH44+kYIwIryYw76JpBFP6E+qqP5ELqPvyavnSh//7+lL35ZAal1hh42dMUGDKGtIPDIZefOXoy+9kTeeXzrtublPQsdDJ3Odlr+y1L76XQk4aCrdwEMEZgXAJLSlufZH/zptWNr7fzOeyliPfdfDQXnYUdeQ+cbFyn/8t1unPy74PgryFSu4v9ue1/SoEYSSPDARefOXY8dfzyeS5nP84M8zhjEsceLtgXbD923/5oU2CmB2mfF+Hnab8xmlJozZq63f/a8pJdV7fzHxpFY0htgB8Dx1+dvV//zvt05/sqx8g8jZyMBubgkICaWEWEa88pP+9/5ydGAs/nw//LMuUaw/A3TqG4z4Ps9OVdsNnyhIlq7zTAIeMgALoTeqdr3sCB37BiPRuB4+fyF8T10/W/rd/5r6+uNltw1IftCfvYGBXUdUSTSifOq9wZ/+/a49hzJE+EKTMGj1yvRbSsLidMPpYFBA5/VLUrtXFBFYiUbVqVdsEpgfjkZiIQ9fbAb66tq50q//x63v/rjSaTISMMheE2fBtK4AAKHB/uPpv/w/9x17PS/E8y8pPX8SAkA8aSTTRqPmlAqdTktRV3sH1idpkDlISkqsV91ayRGEqaz5tNUHQmxZMMPFb1Z+/z+nv/9ToV72Meg97jXz2V0wyIKI9x5N/fwf97zy/pBpbYnepq1S15rYn/rZ3006tvzu0xWnAwSgNsybYNDhzQoBfJduX6p6ju846uf/uCuZCXn44sWBrrxxqfLr/+v2d38oODYABT0xPaeuGZgINIVyeFf8vb8af+uXo9HYVnn4t4QlDErA6bwlNGpUndXFhu+tbY5Zf02xO/4LqFjUKk6p0CLEwdGYFdPC5/KFMoJXzhT/7f9347tPV+2mImIG2SsTE8w/IrBghblh88N/nPzJX42ls9bW+Spb6ME1THHy7QEG9nz/6vdVz9aYFCt/nQxB4JcqlkgMrN28WFPeTcf23/3zseFd8VB74kVAu+Gd/7rw8f+e/fqjJZYGCk+yAujFQAYAEGgAQ36X+ZO/HP3p30zknvSCwR1iCQPohsgORAxTNGvO6mKLJQZdvut2iHfPOwYA1nWjVraXZpuOI7P5SDJjIoU83MmoFO3vPl3+z/9++/yXZekxkmJQPXsPg64YAo0Zknn68O8nfvYPE4Oj8a32jbYWCQN7mM1HdBMbFbe0YgMTUkDC9XkaRGZgQEbUOg25utxs1Lx4wsjkra2Q8grxNLA02/jiNwuf/D+zN87VpEdIitnv2W0TxCyIApVID2h/9n9MvPtXY2O7U1vwS23FOCrVZ778zpD0uNPxZ641pIdIglltmDzEu/00IEqL7te/X/Zt3+74h1/JhSXEnRcETt+of/W7+S9/tzh7oyk9AHQ3ns53GciAqCkFqSy+/sHQ+3872RXSDkn4kMj2R974+Uiz7rKcn71Zlz4FfNs4AYwYKERJRGpUvC9+u1Sreu22//LbA7GkETqmOwOep2auVz/+l5nTf1haXbCVQiSpeDP9u6BWLxBEOide/1n/z/9xcnxPcst+uy3njt6BFdH6BqIkoFq0a2UHFAX+58aTL0jVADAiuS7Wis7KQp0VpzJWWELcAXDa3tkvVz76l+lvPllcXXQJiEltrCTfCQOBmVhTTKmceOvD4Z/+3cSB431buVF465IwKOLnh6JCYKNm18oeSEJBzD2i8CAtFshaKqkVZtoryy3fV5GYlsqYJEKLuF1RXu1898fCb//v2199tNipMxEo8LpCwtgjF4oQDOljdsB8/cP+P/vH3QdO5LZ4rm5LkxAAogl9aCIejerNhlssNMEnxm5L93oedjveEIEFUa3sz9+qFZdahqXlh6OaFqZqtlsMqHj+duOjf575z/9268aFCihCYsauJGlvBiIBEAOm+vDn/2XyF/9l18SBNG35bPk2KHCnstarPx0SGgrBl76tsKsjIKO/rm5xR4VdsUSQREa16J/5fLXZ8FYXWyffHRrdlQif7O2CdsM9+0XhzGcr574qFOYdUBqjZJabqFRw0JWGIJSE4d3Rd/5i6L2/HBvbm9oWX3Z7dJmkc5FT7w8LTWja9IVvyk4HhTAUe700JAOLyIo9FNRpqgtfl8srdqngvPXz4bG9qUjYWLO1IX0uFjoXvir88T/mrp+pdFpKgcJgDUHvTowgRUrMRALyo/pP/nr0/b8dHxqLbZevvNXd0TswI1p+OJLOmp22X1m1PQeDFcc97033z4NNQIradX/2VrWy0iGNUlnTjIhwnndrwnX821dqH/3r9Cf/e/r2pZrdVkQE8EMMREJAEjC2J/Gzf5j84O8mB8di2+gWbxsSBnX8/FAsmjKU4mqpY7cUIa11S2ySMkVGYACy21hYqNfKdqvuCp1SWTMs6G81LM81z/yp8Nl/zn/z8dLyjMs+owbrd+mtiwIBEYWSKDTedyz9/t+Nv/PL0WcvHPqYwG23wURJdeNS9eN/nfrm94XicgdRAMqgZL/5FBkAULBINpXVXnl36K1fjO47lsn0WWGP21ZAp+kvTDe+/dPSV79ZmL3V8t1gHkLde//uu6nBeC4Rsq6kMqK872j6g7+ffPuXY7Ft2KSB23GNEAMv3Gp8+fvFj/55av52m7o7DyX03h/Y/YpIGipiUJGYGB6PHjqVe+eXo4dP5cKe7+eLasn+7D9mvv5kefZGvVr0g1WQiv1N6hB3dWIIdelDLMUvvzP4wd/vOnJqu7ZJbcssBQKO7km+H9UicfH5r+eunqkoV0MixT736KII7iOz8hkAkey2du1cdWWpXVruzE/Vdx/Nju9KGpYI+fCMz9Lisn37cvnSt8XvPitMXa4R6KSBYhfuNulDbxsIhGgo6Y3sir76wdCbH47sP57Vje16B3FbL9RrNZxzXxZ/83/fvH620mooYABUzEEo+ANxPLPSNS07bJx8Z/C194d2H04lUub2vZHbKaBQ3G55Kwutc1+unP54Yfpqs9Ni3/eIAukE9UD6IYAAQKHB2J7YG3828v5fTQxOxGg7hxW43bdatlve1bOlL3+7cOazwuqCCwwKfWS1+Wb5bl8FoWAQnufmBq2RXbEDx/teeqP/wMlcLOz8fqoMZDV3o3H2y8Klb4uz12srC23fJRKklMegHmAAg3MVWSgFkbg49Erfm78YOv76wNB4fLtfk21fNIvG9ONv9MfiejKln/l8deZa3fN0QqXYXzs5NxYSmQEUS0CpaaJWVPVybWmmvTzXXphp7T+aHZqMJdNmSJgnC9eRhfnm3O3GpdOr579cnb/VUhIBkMlXwYK53soUd7OgAKSU3zdoHT6VffuX48ff6n98xe7QEj5JD6dU6Jz5rPCn/5i9dq5qN3wUBKCY1SZU7G59RkBACpIBQqNYig6fzL32s+FDL+eyA1YkooVpm8eP/aTPrbp781L1+z8tn/uisDjX9B3moA0NVHc72QYG3hXqRUIgpVhoPDAWf+NnQ2//+ciu/Zkds4IOd9KS9XrVuXmh8s3Hi19/srRwqx6JRIF8xfIHA30AIBQIhpLKiPjj+zIje6L7jmWOnBrYcygd0uhxUFppX/6ueP1c5faVyvytRrngCmEwSEBPbb6N5859AUABmu+TbqkTb+de+3D4+Ov5wdE47aAy744iYYCVhfYXv5n78qOFmeu1VlURaQBSgb85FbtWEYARiIFYkvT9wV3Rl17vP3QyO74vOTSaSOZMERYVHyFn5paWO/PTzRvnyue/Wrl5qex2UNMFkmRgWBOj7307gmMRCFADBcLA3LB+7LX+n/zN2JFX8juvy2IHklAxt+vOxe9KX/x6/vwXq42K70m5dryqtbTpg3KnhJpSElFF42YkLkZ3xU6+O3jklfzwrrhpCaERhWzcBL6vlM+VYufKd6WzXxaunis1K36r5fkOCxIM6gEdMGsGEBEDjVAgQt2kyYPJt385euq9oYGxqK7vwPT1DiRhAMf2b1+pXTq9cv7L4rUL5XbNJxIAfjAJs8lE9t1jGAAQNALh+VIz1Nie5PBEfHRfcnxPYvxAanQybhhhI/h6VFY6UzfqM1crc7fq87cbc7cblVXX0C0kpdgHUA+IC+5oUjAQIbLUhK5G9kSPnMq99MbAwRN9fQM7dvXIjiVhMJBWqzgXv1n9+uPFG+fLqwu25wAJYvDVpm1u66wiApBSStd0IowkcGRX7MCJ3N5jqbFdqUTaSKQMM/JCs1FJ1ax5jZpbLLSmrzSunCvdPF+qFaX02Zd+d8YTmDeVooB7a4BEOitQyk/nIhP7YyffHTz13tDIroSm7+RG351MwgB2xyvMtS5/V/r032ZvXqy6NgMqRGQINs/wA3l4JzsnmJHB13SMJvRoQoxOJPceyxw62Te+L5XOWULQizaYoZidllyYrl8/X7lxsTx1pVIruq2W225JAg0x+BEZPF4POO/WaoAIjAAoBPcNWK/9bPiNPxue2JdOpI0d7/zvfBIGqJft89+sXPi6eON8+faVqnQ00gWzEwxhPHBjdmASg+QNEQoEjZkUdoZGo+P7UkMTsf7RWH4wNjQeG55M6MbOH84or9hLM43ludbKUmtpurkw1Zy5VfNbOiIp9AF8xXJtw+umzuc9nj8REihdsZcbNvYdyxx+JffSG/27D2VekOPsRSFhgFrJ/v6zwtcfL968UK6suq4jCTVABSzVQ+Tr7p7pgMCgmJVEBplMGyO7AsOYG90VS+YiliVMi0xL2xlTGq7rO7b0HG7V3cJcc+pq7cq54tTF6mqh43ugCUTCO9dFAT4w/Lsn6iZC1pgZWCb6jJGJ+Mm3B1/76fDuoyl8kcqzLxYJA92E1aXO9Qvl7/64cuaLBbehMa41DXeTc/zA9OmdtA0hCkQNAV3f0TQVTxrJVCSaFrnhyOhEYmxPcngyPrY7ZUZE92HcPou1ubsPEhi4VOjMXK8v3G7M364tzrYbFadZ95tVu93yDWEBoWLJKFkpuFPa+wG3InjwgJAEGb60dx9OvfbB8Etv9I/siqdzkRct9fzCkTBAq+HdOF++fKZ47Uxp/lZzdakFrCMCg3/HQYUHuVL3VpOBgBiJFaISkj3d4r6BSP9IND8UHRiJ9g3GUlkjlTETGSORNhNpU2xh9bdOy69WnEbFblScRtUtFTrlFWd5rrmy2FpZaDcrElAQIZICVMDMoIID64FZrrunFwICasgklYoncWRXYvxA4ugr/YdP5XZAF2hIwkc7632XO23/+oXS2c8Kl79bXV3otFrKtSWRAGRgycwPtIrr8woIGDyJLBUSajppQtMMMizsGzSGxmL9o/H+kejgWCI3FDFMITTUNKHpqGkoNBLPVg9OMfuuUlL5Pvuekj77nmzU/OXZxtJ8c2W+VZhrFRaarRpLn3zX830ppQIIthIAAnO36MoPvD5r7YGIAEQoWCoWMp6w4ilt95H0K+8MHHkt35ePGKZ4YQesX1gSduE4srjQXpprXjtXuvD16tTlWrPuU1eDhrvP0ObF5Y1Wcc1TJQAEJgTylSd0GY1rkZgeiWuxuBFP6cm0meoz032RVJ+ZyhrprJnIWvGEbka1p9yXw44t202/VXerJadWcqplu1Z0qmWnVu40a2676bebXrvht5qu21GEBiIhBktXuNsDeNeowQ8wkLHLUkSWCIpAyJHdsWOvD+x/KTOxLzk4Gk9mX/Re+RedhHeO65WF1qVvV6+dK81cr6/Mt8ortpSaTpoCrzuQcTctgz8UT22QJgYEJkEITEgaAivyojFO9UVS2YCNVjytJxJGJKlHYrphkmlppilIQ0MnoZMmSOgkNEQEFEiAKJAQgwNCSVYMrBQDsASpWHpK+sr31wydJ21bubbXact202/V3GbdbVTcatmpFju1sluvuMrTCAUzKPABWCqFaxoT64z+D13Le2NDItYRyFNuPEmDY/H+8cih47kjr+cm96UNM5zeDEm4zkOT3Gy4ty9VznxeuHh6de5m3XFAeR6QRohr2Qp1vyn4gfzN3TwgdzMzfOcnmAElIhExEpFAQCZA3RTRpJFKG/G0EYloZkSzolokollRYUSE0EkIEoSaQNIRiYCVkiw99iUrqaQE15G27blt2WlJx/Y7Ldlp+bVKp1F17bZUUjIjMyjFLJXiYDm5QKC1b8PIoIARFN9/mDzc9+2OTQOAJ32NSDMo1WcefqXvlXcGD76c7R+KaTpBKHgXkvABvuXKYru40J69Ub91qXz5bGnuZlOnmGQJ4KruUpqHtwy9OAlAgEyELBARmbhrYgUySiWVcj32TJ2FJoRGuiGEBkITmo4AQAIIkUggIqMiBOWz4uBWsvJBKiUl+y77vvJ9KX3wXV8qYQiTSFuz1hIDtrFiYGZ53/nyEKmp3pafEQCJNGLypYql1P6TfYdO5if3p4bGYwNjcSsSWr+QhA8N15bT16tXzpZvXSwtTjVrJae02nEdFKABMqNCVuqeB/chPNWNYSSuPe18j+8avBhy9+fWfprv/M0H3M+7nwBx7f92P1lwp/mOs8j3ftqHOk16+pyAgECETMhCKUm6TKSNdM7M9kd2H8rsfyl78ERfJm+FT1RIwh8D31edpt9uegtTzatnV698X5qfanSaIH32HFdJRhIAzMAAijl4lO/l0kOQ8d5f7qXS3WYThLUq492/tXkhDhjvoepabqlrse57K1z3ng/3abudfMGwOyAAASsFrOvCMAzN4PyQue+lzP4TuT2HMuk+04pqoep5SMInAOmr5flWYa65PNdamG4uzTZnb9SKCx3XRSEIkLGbwFDdvpve4/yP4BL3oObj3uofTGY+jN0OThkKXocVKQVEKp6h4cnE5P704Fh0eDI5MBIdGIsnwr10IQmfdAaVlWIluVSwZ67Xrp8rz96srS612g2/2fBaNZeVpglNASOwCsqMIO81Mz+aA88hLr7H6q3FhgKBCAmRlGLXa8WTZjRpxhNaqk8fmkzuPpg6dCI3MB4zTEGE4chlSMKnC6cjOy2v3fRWl9rT12pTVypTV2sLc61WzQMFJAAABSHQRheRe9qoe9iJz+hI6ekH3/MZAm2zO5+HJftKERAr0AzsGzInDqT3Hs5M7k8NTcSTWTMS1aJxPeReSMLngHrFXVloLs82SivOykKzVHCLS63VQrtScIBNjXRmn1EBsuIglyOfhsf46L7lph8iKFcQIDMhaszgy3Y0Cf1D0fxwvG8w2pe38qPR/FB0YCzWPxwLiReScAuhWXeWZlrztxuzN+uLM43CQrPTkE7Hd13p2sp1pFIgUF9LqwRVx2B7FK9lQdVTv+UAEHSIdbvysNv+CggcLGCRmgGGqRkGGZZmmJgbiA1OxMf3Jsb2pEZ3x7P9EaJwnU5Iwi2cwmk1/U7Ls9t+p+mVV5zCfLf7ubjYXl1uS1dTTKCkYlaslILuIBUDITIg3vEVfyAzw7392s2pd+d3DMDMhAEIkQgx4BUKmchS/0isfzieH47mh6L5oWiwTy4a16Nx7QVXEghJuP2gpKoU7fKqU121q8VOtWjXqm6z5rSbfrPutpt+q+k5La/Tlo6tlAfAmhDi7qgxMAAG0tT3/knXkN5xXvku0/jOD6zJea7VA7FrfJVHgjUTrIgWjWnRuBGNaZGkHk/okbiWSpupnJnORbJ5K52LZHNWJB6yLiThjjCPUrKSrBRLqTotr1p0i0vtStGurHbqFbdZc2tVp1n1HJuVx0HLCytQSrFkqVS3y0wF5FOB24p3ChnBBEdQcCcEAEJAAYREhCSQEFEjQUgaGAbF4lo0rSfTRipjZnKRTN7K5KzcUDSWNDQdhUASJASSCJOcIQl3sIVUyu5IpyOdtu+60nOlayvPk05HtRteq+m2W57TVo7tu7bvdqTjsGNL3/OVBCVZKpZKsa+YgQE1HRFBE4QChSAUaBhoRYJGcGFENMsSVlSPxfVoSo9ENcMQmoG6qRkGWRFhRoQREaF+XEjCEHfh+6rT8GxHuW3fcaRre46tXEd6jlSMrEApKT0lFbBiJERCQSA0gQI1QiA0TTItzbDItIRpkW7o0biwYuGum5CEIR4Ld4K9oEGOEVAxE2K3n2VtqUqIkIQhQoR4BITVnhAhQhKGCBGSMESIECEJQ4QISRgiRIiQhCFChCQMESJESMIQIUIShggRIiRhiBAhCUOECPEM8f8HeQwHSWUQz6gAAAAASUVORK5CYII=;" vertex="1" parent="gKSc9yTnYQ1M9_7lbM7r-1">
          <mxGeometry x="-15" y="104.75" width="30" height="30" as="geometry" />
        </mxCell>
        <mxCell id="gKSc9yTnYQ1M9_7lbM7r-24" value="" style="outlineConnect=0;dashed=0;verticalLabelPosition=bottom;verticalAlign=top;align=center;html=1;shape=mxgraph.aws3.route_table;fillColor=#F58536;gradientColor=none;" vertex="1" parent="gKSc9yTnYQ1M9_7lbM7r-1">
          <mxGeometry x="34" y="104.38" width="31" height="30.75" as="geometry" />
        </mxCell>
        <mxCell id="gKSc9yTnYQ1M9_7lbM7r-25" value="" style="edgeStyle=orthogonalEdgeStyle;rounded=0;orthogonalLoop=1;jettySize=auto;html=1;" edge="1" parent="gKSc9yTnYQ1M9_7lbM7r-1" source="gKSc9yTnYQ1M9_7lbM7r-13" target="gKSc9yTnYQ1M9_7lbM7r-24">
          <mxGeometry relative="1" as="geometry">
            <mxPoint x="173" y="260" as="sourcePoint" />
            <mxPoint x="236" y="260" as="targetPoint" />
          </mxGeometry>
        </mxCell>
        <mxCell id="gKSc9yTnYQ1M9_7lbM7r-28" value="" style="edgeStyle=orthogonalEdgeStyle;rounded=0;orthogonalLoop=1;jettySize=auto;html=1;" edge="1" parent="gKSc9yTnYQ1M9_7lbM7r-1" source="gKSc9yTnYQ1M9_7lbM7r-26" target="gKSc9yTnYQ1M9_7lbM7r-27">
          <mxGeometry relative="1" as="geometry">
            <mxPoint x="368" y="261" as="sourcePoint" />
            <mxPoint x="548" y="262" as="targetPoint" />
          </mxGeometry>
        </mxCell>
        <mxCell id="gKSc9yTnYQ1M9_7lbM7r-33" value="" style="edgeStyle=orthogonalEdgeStyle;rounded=0;orthogonalLoop=1;jettySize=auto;html=1;" edge="1" parent="gKSc9yTnYQ1M9_7lbM7r-1" source="gKSc9yTnYQ1M9_7lbM7r-30" target="gKSc9yTnYQ1M9_7lbM7r-32">
          <mxGeometry relative="1" as="geometry">
            <mxPoint x="631" y="260" as="sourcePoint" />
            <mxPoint x="790" y="260" as="targetPoint" />
          </mxGeometry>
        </mxCell>
        <mxCell id="gKSc9yTnYQ1M9_7lbM7r-34" value="" style="edgeStyle=orthogonalEdgeStyle;rounded=0;orthogonalLoop=1;jettySize=auto;html=1;" edge="1" parent="gKSc9yTnYQ1M9_7lbM7r-1" source="gKSc9yTnYQ1M9_7lbM7r-39" target="gKSc9yTnYQ1M9_7lbM7r-30">
          <mxGeometry relative="1" as="geometry">
            <mxPoint x="625" y="261" as="sourcePoint" />
            <mxPoint x="719" y="260" as="targetPoint" />
          </mxGeometry>
        </mxCell>
        <mxCell id="gKSc9yTnYQ1M9_7lbM7r-30" value="" style="outlineConnect=0;dashed=0;verticalLabelPosition=bottom;verticalAlign=top;align=center;html=1;shape=mxgraph.aws3.route_table;fillColor=#F58536;gradientColor=none;" vertex="1" parent="gKSc9yTnYQ1M9_7lbM7r-1">
          <mxGeometry x="516" y="107" width="30" height="30" as="geometry" />
        </mxCell>
        <mxCell id="gKSc9yTnYQ1M9_7lbM7r-36" value="&lt;div&gt;SSH&lt;/div&gt;" style="whiteSpace=wrap;html=1;" vertex="1" parent="gKSc9yTnYQ1M9_7lbM7r-1">
          <mxGeometry x="242" y="110.68" width="34" height="22.63" as="geometry" />
        </mxCell>
        <mxCell id="gKSc9yTnYQ1M9_7lbM7r-37" value="" style="edgeStyle=orthogonalEdgeStyle;rounded=0;orthogonalLoop=1;jettySize=auto;html=1;" edge="1" parent="gKSc9yTnYQ1M9_7lbM7r-1" source="gKSc9yTnYQ1M9_7lbM7r-9" target="gKSc9yTnYQ1M9_7lbM7r-36">
          <mxGeometry relative="1" as="geometry">
            <mxPoint x="368" y="261" as="sourcePoint" />
            <mxPoint x="496" y="262" as="targetPoint" />
          </mxGeometry>
        </mxCell>
        <mxCell id="gKSc9yTnYQ1M9_7lbM7r-38" value="" style="edgeStyle=orthogonalEdgeStyle;rounded=0;orthogonalLoop=1;jettySize=auto;html=1;" edge="1" parent="gKSc9yTnYQ1M9_7lbM7r-1" source="gKSc9yTnYQ1M9_7lbM7r-36" target="gKSc9yTnYQ1M9_7lbM7r-26">
          <mxGeometry relative="1" as="geometry">
            <mxPoint x="427" y="262" as="sourcePoint" />
            <mxPoint x="496" y="262" as="targetPoint" />
          </mxGeometry>
        </mxCell>
        <mxCell id="gKSc9yTnYQ1M9_7lbM7r-26" value="" style="outlineConnect=0;dashed=0;verticalLabelPosition=bottom;verticalAlign=top;align=center;html=1;shape=mxgraph.aws3.route_table;fillColor=#F58536;gradientColor=none;" vertex="1" parent="gKSc9yTnYQ1M9_7lbM7r-1">
          <mxGeometry x="281" y="110" width="30" height="30" as="geometry" />
        </mxCell>
        <mxCell id="gKSc9yTnYQ1M9_7lbM7r-39" value="&lt;div&gt;SSH&lt;/div&gt;" style="whiteSpace=wrap;html=1;" vertex="1" parent="gKSc9yTnYQ1M9_7lbM7r-1">
          <mxGeometry x="476" y="108.88" width="34" height="22.63" as="geometry" />
        </mxCell>
        <mxCell id="gKSc9yTnYQ1M9_7lbM7r-40" value="" style="edgeStyle=orthogonalEdgeStyle;rounded=0;orthogonalLoop=1;jettySize=auto;html=1;" edge="1" parent="gKSc9yTnYQ1M9_7lbM7r-1" source="gKSc9yTnYQ1M9_7lbM7r-8" target="gKSc9yTnYQ1M9_7lbM7r-39">
          <mxGeometry relative="1" as="geometry">
            <mxPoint x="625" y="261" as="sourcePoint" />
            <mxPoint x="674" y="260" as="targetPoint" />
          </mxGeometry>
        </mxCell>
        <mxCell id="gKSc9yTnYQ1M9_7lbM7r-15" value="" style="edgeStyle=orthogonalEdgeStyle;rounded=0;orthogonalLoop=1;jettySize=auto;html=1;" edge="1" parent="1" source="gKSc9yTnYQ1M9_7lbM7r-22" target="gKSc9yTnYQ1M9_7lbM7r-13">
          <mxGeometry relative="1" as="geometry" />
        </mxCell>
        <mxCell id="gKSc9yTnYQ1M9_7lbM7r-14" value="&lt;div&gt;&lt;br&gt;&lt;/div&gt;&lt;div&gt;&lt;br&gt;&lt;/div&gt;" style="sketch=0;outlineConnect=0;fontColor=#ffffff;strokeColor=#6F0000;fillColor=#080002;dashed=0;verticalLabelPosition=bottom;verticalAlign=top;align=center;html=1;fontSize=12;fontStyle=0;aspect=fixed;shape=mxgraph.aws4.illustration_users;pointerEvents=1" vertex="1" parent="1">
          <mxGeometry x="22" y="240" width="40" height="40" as="geometry" />
        </mxCell>
        <mxCell id="gKSc9yTnYQ1M9_7lbM7r-23" value="" style="edgeStyle=orthogonalEdgeStyle;rounded=0;orthogonalLoop=1;jettySize=auto;html=1;" edge="1" parent="1" source="gKSc9yTnYQ1M9_7lbM7r-14" target="gKSc9yTnYQ1M9_7lbM7r-22">
          <mxGeometry relative="1" as="geometry">
            <mxPoint x="62" y="260" as="sourcePoint" />
            <mxPoint x="184" y="260" as="targetPoint" />
          </mxGeometry>
        </mxCell>
        <mxCell id="gKSc9yTnYQ1M9_7lbM7r-22" value="&lt;div&gt;SSH&lt;/div&gt;" style="whiteSpace=wrap;html=1;" vertex="1" parent="1">
          <mxGeometry x="73" y="246" width="43" height="26.75" as="geometry" />
        </mxCell>
      </root>
    </mxGraphModel>
  </diagram>
</mxfile>
